<svg xmlns="http://www.w3.org/2000/svg" viewBox="0 0 512.001 512.001"><path d="M496.396 61.776c20.807 20.807 20.807 54.664 0 75.471L248.82 384.822c-6.895 6.895-15.951 10.342-25.007 10.342-9.056 0-18.112-3.447-25.007-10.342l-120.34-120.34c-20.807-20.807-20.807-54.664 0-75.471s54.664-20.807 75.471 0l69.876 69.862L420.925 61.776c10.41-10.397 24.063-15.609 37.742-15.609 13.652 0 27.332 5.212 37.729 15.609zm-19.344 56.128c10.137-10.15 10.137-26.648 0-36.785-10.137-10.137-26.648-10.137-36.785 0L241.16 280.227c-4.637 4.637-10.793 7.182-17.346 7.182-6.553 0-12.708-2.544-17.332-7.182l-71.887-71.873c-5.075-5.075-11.724-7.606-18.386-7.606-6.662 0-13.324 2.531-18.399 7.606-10.137 10.137-10.137 26.634 0 36.785l120.34 120.34c3.119 3.119 8.208 3.119 11.327 0l247.575-247.575z" fill="#1e0478"/><path d="M477.052 81.119c10.137 10.137 10.137 26.634 0 36.785L229.477 365.479c-3.119 3.119-8.208 3.119-11.327 0L97.81 245.139c-10.137-10.15-10.137-26.648 0-36.785 5.075-5.075 11.737-7.606 18.399-7.606 6.662 0 13.31 2.531 18.386 7.606l71.887 71.873c4.624 4.637 10.78 7.182 17.332 7.182s12.708-2.544 17.346-7.182L440.268 81.119c10.136-10.137 26.648-10.137 36.784 0z" fill="#94e7ef"/><path d="M449.72 239.845c.383 5.308.575 10.739.575 16.156 0 124.143-100.997 225.141-225.141 225.141S0 380.144 0 256 101.011 30.86 225.154 30.86c49.165 0 95.867 15.568 135.046 45.006 6.046 4.542 7.264 13.119 2.722 19.152-4.542 6.046-13.119 7.264-19.152 2.722-34.418-25.855-75.43-39.521-118.617-39.521-109.067 0-197.794 88.727-197.794 197.781s88.727 197.781 197.795 197.781c109.055 0 197.781-88.727 197.781-197.781 0-4.761-.178-9.535-.506-14.186-.547-7.538 5.13-14.09 12.654-14.637 7.551-.533 14.09 5.13 14.637 12.668z" fill="#1e0478"/></svg>