<svg xmlns="http://www.w3.org/2000/svg" viewBox="0 0 512 512"><path d="M252.477 17.833H113.46c-16.256 0-29.434 13.178-29.434 29.434v171.186h197.885V47.267c0-16.256-13.178-29.434-29.434-29.434z" fill="#ffca66"/><path d="M137.448 17.833H113.46c-16.256 0-29.434 13.178-29.434 29.434v171.186h23.988V47.267c0-16.256 13.178-29.434 29.434-29.434z" opacity=".15" fill="#333"/><path d="M48.226 369.848h42.807V494.17H48.226zm372.738 0h42.807V494.17h-42.807z" fill="#734734"/><path opacity=".15" d="M420.964 369.848h42.807v75.127h-42.807zm-372.738 0h42.807v75.127H48.226z" fill="#333"/><path fill="#734734" d="M8.178 196.646h495.643v51.421H8.178z"/><path fill="#b06d4f" d="M25.04 249.898h461.024v175.1H25.04z"/><path opacity=".15" fill="#333" d="M25.488 248.067h461.024v21.807H25.488z"/><path d="M368.192 103.418c-3.775 9.599-1.787 20.941 5.972 28.7 7.76 7.76 19.101 9.747 28.7 5.972 3.775-9.599 1.787-20.941-5.972-28.7s-19.099-9.747-28.7-5.972z" fill="#8ae6a1"/><circle cx="405.416" cy="175.046" r="41.521" fill="#d9576d"/><path d="M382.802 169.596c0-19.677 13.693-36.143 32.066-40.423a41.568 41.568 0 0 0-9.45-1.094c-22.929 0-41.516 18.587-41.516 41.516s18.587 41.516 41.516 41.516c3.253 0 6.412-.386 9.45-1.094-18.374-4.277-32.066-20.744-32.066-40.421z" opacity=".15" fill="#333"/><path d="M503.822 188.467h-50.566a49.539 49.539 0 0 0 1.856-13.419c0-24.888-18.393-45.558-42.299-49.14a34.883 34.883 0 0 0-10.137-22.299c-6.591-6.592-15.355-10.222-24.679-10.222-4.405 0-8.711.814-12.796 2.422a8.173 8.173 0 0 0-4.618 4.618 34.915 34.915 0 0 0 7.799 37.475c.66.66 1.348 1.281 2.049 1.881-9.275 9.211-14.707 21.855-14.707 35.265 0 4.65.656 9.147 1.856 13.419h-67.491v-141.2c0-20.74-16.872-37.612-37.612-37.612H113.46c-20.74 0-37.612 16.873-37.612 37.612v141.2H8.178A8.177 8.177 0 0 0 0 196.645v51.42a8.177 8.177 0 0 0 8.178 8.178h9.132V423.17a8.177 8.177 0 0 0 8.178 8.178h14.567v62.821a8.177 8.177 0 0 0 8.178 8.178h42.806a8.177 8.177 0 0 0 8.178-8.178v-62.821h313.568v62.821a8.177 8.177 0 0 0 8.178 8.178h42.807a8.177 8.177 0 0 0 8.178-8.178v-62.821h14.566a8.177 8.177 0 0 0 8.178-8.178V256.242h9.133a8.177 8.177 0 0 0 8.178-8.178v-51.42a8.181 8.181 0 0 0-8.181-8.177zm-129.032-78.45a18.704 18.704 0 0 1 3.207-.275c4.955 0 9.611 1.929 13.114 5.431a18.553 18.553 0 0 1 5.157 16.315c-.11.02-.222.031-.334.047a19.541 19.541 0 0 1-1.643.18c-.189.012-.377.017-.566.024-.443.014-.886.012-1.331-.004-.208-.008-.418-.016-.626-.031a18.927 18.927 0 0 1-4.14-.761c-.058-.017-.118-.027-.177-.045a18.462 18.462 0 0 1-7.506-4.563 18.56 18.56 0 0 1-5.155-16.318zm11.825 37.507c2.105.391 4.26.599 6.447.599h.001c4.404 0 8.709-.814 12.794-2.422.409-.16.794-.361 1.166-.581.059-.035.119-.068.177-.104.351-.219.683-.466.995-.735.057-.049.11-.099.166-.149.312-.283.606-.584.871-.913.017-.021.031-.044.047-.064.253-.321.478-.662.681-1.019.022-.038.051-.07.072-.108 16.207 2.253 28.724 16.202 28.724 33.019 0 6.87-2.09 13.26-5.665 18.571l-.045.069c-4.997 7.383-12.875 12.657-22.004 14.215-.281.047-.562.096-.845.136-.303.044-.609.082-.915.117-.394.046-.791.083-1.187.113-.237.02-.474.04-.712.055-.651.038-1.305.063-1.964.063s-1.313-.025-1.964-.063c-.239-.014-.475-.035-.712-.055a33.96 33.96 0 0 1-2.101-.23c-.285-.04-.567-.089-.848-.136-9.127-1.558-17.004-6.831-22.001-14.213l-.05-.076a33.145 33.145 0 0 1-5.661-18.564c-.002-11.054 5.498-21.342 14.533-27.525zM92.204 47.267c0-11.721 9.535-21.256 21.256-21.256h139.017c11.721 0 21.256 9.535 21.256 21.256v141.2H92.204v-141.2zM82.862 485.99H56.41v-54.643h26.45v54.643h.002zm372.729 0h-26.452v-54.643h26.452v54.643zm22.743-70.999H33.665V256.242h444.668v158.749h.001zm17.311-175.104H16.355v-35.065h349.267c7.301 9.792 17.771 16.408 29.556 18.853l.455.094c.617.122 1.236.234 1.86.334.334.053.669.099 1.005.147.504.069 1.009.138 1.517.193.506.055 1.017.094 1.528.133.375.028.749.065 1.126.086.909.05 1.825.08 2.749.08s1.838-.029 2.749-.08c.377-.021.751-.057 1.127-.086.51-.04 1.021-.079 1.525-.133a51.295 51.295 0 0 0 1.52-.194c.335-.047.669-.093 1.001-.146a49.706 49.706 0 0 0 1.864-.334c.15-.031.3-.061.449-.093 11.788-2.445 22.259-9.061 29.56-18.854h50.431l.001 35.065z" fill="#26150c"/></svg>