<svg xmlns="http://www.w3.org/2000/svg" viewBox="0 0 512 512"><path d="M154.138 337.83h-45.863c-32.359 0-58.592 26.232-58.592 58.592 0 32.359 26.232 58.592 58.592 58.592h157.202v-86.395L154.138 337.83z" fill="#ffca66"/><path d="M348.697 125.985L162.837 8.801h-59.012c-55.87 0-91.714 59.393-65.677 108.825l127.274 241.628h-.02c23.35 43.254-7.973 95.76-57.128 95.76h309.221c49.154 0 80.477-52.506 57.128-95.76L348.697 125.985z" fill="#fec"/><path d="M103.825 8.801c32.359 0 58.592 26.233 58.592 58.592 0 32.359-26.233 58.592-58.592 58.592h244.873c32.359 0 58.592-26.233 58.592-58.592 0-32.359-26.233-58.592-58.592-58.592H103.825z" fill="#ffca66"/><path d="M327.577 181.722H117.906c-4.861 0-8.801-3.94-8.801-8.801s3.939-8.801 8.801-8.801h209.671a8.801 8.801 0 0 1 0 17.602zm36.232 42.207h-209.67c-4.861 0-8.801-3.94-8.801-8.801s3.939-8.801 8.801-8.801h209.67a8.801 8.801 0 0 1 0 17.602z" fill="#665f52"/><path fill="#ff8095" d="M417.599 368.618v134.581l-33.168-27.969-33.167 27.969V368.618z"/><path d="M351.264 421.442c9.823 5.501 21.131 8.653 33.168 8.653s23.346-3.152 33.169-8.653v-52.824h-66.337v52.824z" opacity=".15" fill="#333"/><circle cx="384.434" cy="361.986" r="44.637" fill="#ffca66"/><path d="M86.059 396.421c0-32.359 26.232-58.592 58.592-58.592h-36.376c-32.359 0-58.592 26.232-58.592 58.592 0 32.359 26.232 58.592 58.592 58.592h36.376c-32.36 0-58.592-26.233-58.592-58.592zm275.498-34.436c0-20.795 14.219-38.269 33.465-43.23a44.707 44.707 0 0 0-11.177-1.412c-24.655 0-44.641 19.987-44.641 44.64s19.987 44.64 44.641 44.64c3.859 0 7.604-.49 11.177-1.412-19.247-4.957-33.465-22.431-33.465-43.226z" opacity=".15" fill="#333"/><g fill="#26150c"><path d="M336.385 172.92a8.8 8.8 0 0 0-8.801-8.801h-209.67a8.8 8.8 0 0 0-8.801 8.801 8.8 8.8 0 0 0 8.801 8.801h209.67c4.86 0 8.801-3.94 8.801-8.801zm27.432 33.407h-209.67a8.8 8.8 0 0 0-8.801 8.801 8.8 8.8 0 0 0 8.801 8.801h209.67a8.801 8.801 0 0 0 0-17.602z"/><path d="M482.376 355.074L362.667 133.321c30.483-6.448 53.431-33.556 53.431-65.929C416.098 30.233 385.866 0 348.706 0H103.833C74.485 0 47.909 15.001 32.744 40.128s-16.052 55.632-2.375 81.598l109.193 207.302h-31.279c-37.16 0-67.393 30.233-67.393 67.393s30.232 67.393 67.393 67.393H342.47V503.2a8.798 8.798 0 0 0 8.799 8.8 8.805 8.805 0 0 0 5.675-2.073l27.494-23.187 27.495 23.187a8.796 8.796 0 0 0 9.383 1.252 8.798 8.798 0 0 0 5.091-7.98v-39.917c23.048-2.734 43.324-16.068 55.061-36.539 12.771-22.272 13.112-49.066.908-71.669zM348.706 17.601c27.456 0 49.791 22.336 49.791 49.791 0 27.447-22.324 49.779-49.769 49.79H149.203c13.525-12.334 22.023-30.089 22.023-49.791s-8.498-37.457-22.023-49.79h199.503zM108.284 446.213c-27.454 0-49.791-22.336-49.791-49.791s22.336-49.791 49.791-49.791h40.552l8.546 16.225c.088.196.183.388.285.579 9.479 17.56 9.035 38.273-1.187 55.411-10.224 17.136-28.241 27.367-48.196 27.367zm300.523 38.052L390.112 468.5c-1.638-1.382-3.656-2.073-5.673-2.073s-4.034.691-5.673 2.073l-18.694 15.765v-74.731c.106.054.215.1.32.153a55.51 55.51 0 0 0 2.336 1.112c.092.041.183.084.275.124 13.515 5.936 29.355 5.943 42.867.001.097-.042.192-.088.29-.131a53.49 53.49 0 0 0 2.319-1.103c.109-.055.221-.101.329-.156l-.001 74.731zm-2.819-93.807c-5.631 4.306-12.538 7.004-19.993 7.328-20.099.875-37.397-15.721-37.397-35.802 0-19.763 16.078-35.84 35.84-35.84 19.761 0 35.84 16.077 35.84 35.84.001 11.447-5.641 21.859-14.29 28.474zm60.211 27.53c-8.578 14.96-23.136 24.91-39.792 27.527V395.01c7.174-9.097 11.472-20.565 11.472-33.026 0-29.467-23.974-53.441-53.441-53.441-29.467 0-53.441 23.974-53.441 53.441 0 12.459 4.298 23.928 11.472 33.026v51.202H156.197c5.979-5.137 11.191-11.299 15.398-18.351 13.328-22.339 14.004-49.308 1.845-72.26a8.485 8.485 0 0 0-.221-.449l-11.316-21.484-.028-.053L45.943 113.524c-10.778-20.462-10.078-44.501 1.872-64.302 11.95-19.8 32.892-31.621 56.019-31.621 27.454 0 49.791 22.336 49.791 49.791s-22.336 49.791-49.791 49.791c-4.86 0-8.801 3.939-8.801 8.801s3.94 8.801 8.801 8.801h239.623l123.432 228.649c9.288 17.208 9.031 37.603-.69 54.554z"/></g></svg>