<svg xmlns="http://www.w3.org/2000/svg" viewBox="0 0 512 512"><path d="M437.621 8.574H141.282v494.853h282.434V178.271l30.724-26.611a25.69 25.69 0 0 0 8.872-19.42V34.265c0-14.189-11.503-25.691-25.691-25.691z" fill="#ffca66"/><path opacity=".15" fill="#333" d="M355.452 135.467V6.923H68.86v494.853h333.461V169.762z"/><path fill="#fec" d="M331.121 143.977V8.574H48.687v494.852h333.461V178.271z"/><path d="M437.621 0H48.687a8.574 8.574 0 0 0-8.574 8.574v494.853a8.574 8.574 0 0 0 8.574 8.574h375.03a8.574 8.574 0 0 0 8.574-8.574V189.84c0-4.863 2.109-9.479 5.784-12.663l21.979-19.037a34.24 34.24 0 0 0 11.833-25.9V34.265C471.885 15.371 456.515 0 437.621 0zm-64.046 494.853H57.261V17.147h265.286v109.204c0 7.421 1.98 14.556 5.567 20.782a41.61 41.61 0 0 0 12.854 13.791l25.199 16.936a16.724 16.724 0 0 1 7.408 13.903v303.09zm81.163-362.613c0 4.97-2.155 9.686-5.911 12.939l-21.98 19.037a33.882 33.882 0 0 0-11.705 25.624v305.012h-24.42V191.764c0-3.533-.548-6.99-1.587-10.265a33.836 33.836 0 0 0-13.403-17.868l-25.201-16.938a24.464 24.464 0 0 1-10.837-20.341V17.147h97.926c9.439 0 17.117 7.679 17.117 17.117l.001 97.976z" fill="#26150c"/></svg>