<svg xmlns="http://www.w3.org/2000/svg" viewBox="0 0 60 60"><path d="M52.179 36.5l-5.596 8.04-3.949-3.242a.999.999 0 1 0-1.268 1.546l4.786 3.929a1 1 0 0 0 1.455-.201l6.214-8.929a1 1 0 0 0-1.642-1.143z"/><path d="M58 35.103V6c0-.008-.004-.015-.005-.023a1.002 1.002 0 0 0-.06-.331c-.003-.007-.008-.012-.01-.018-.011-.027-.029-.048-.042-.074a.963.963 0 0 0-.149-.221.995.995 0 0 0-.082-.077.934.934 0 0 0-.204-.137c-.032-.017-.062-.034-.097-.047A.965.965 0 0 0 57 5H1a.985.985 0 0 0-.351.071c-.035.013-.065.031-.097.047a.976.976 0 0 0-.204.138c-.029.025-.056.048-.082.077a.986.986 0 0 0-.149.221c-.013.026-.031.047-.042.074-.003.007-.008.011-.01.018a.977.977 0 0 0-.06.331C.004 5.985 0 5.992 0 6v39l.002.009c.001.107.017.214.053.319.004.012.013.021.018.033.014.035.034.064.052.097.039.074.083.143.137.204a1.015 1.015 0 0 0 .286.219c.033.017.063.036.099.05.111.04.229.069.353.069h33.636c1.692 5.216 6.591 9 12.364 9 7.168 0 13-5.832 13-13 0-2.535-.74-4.895-2-6.897zm-2.794-3.175a13.071 13.071 0 0 0-.723-.541c-.094-.067-.185-.137-.28-.201a12.96 12.96 0 0 0-.748-.455c-.111-.064-.218-.132-.331-.193-.241-.129-.489-.242-.738-.356-.135-.062-.267-.129-.405-.187-.233-.097-.472-.177-.71-.26-.161-.056-.319-.119-.483-.169-.231-.07-.468-.124-.704-.181-.176-.043-.349-.094-.527-.13-.256-.051-.518-.083-.778-.119-.162-.022-.321-.055-.485-.071a12.923 12.923 0 0 0-7.423 1.476l-5.275-4.307L56 8.217v24.405c-.169-.163-.351-.309-.528-.462-.089-.076-.175-.157-.266-.232zM54.357 7l-21.05 18.588c-.012.013-.029.019-.041.034l-.003.005-1.964 1.734c-1.267 1.131-3.33 1.132-4.602-.003l-1.978-1.746c-.006-.007-.007-.016-.014-.023-.024-.027-.057-.039-.083-.062L3.643 7h50.714zm-31.92 19.264C16.881 31.117 6.086 39.704 2 42.937V8.217l20.437 18.047zM34.163 44H3.879c4.548-3.604 14.801-11.78 20.069-16.402l1.422 1.255c1.001.894 2.317 1.341 3.632 1.341 1.313 0 2.627-.446 3.625-1.337l1.451-1.281 5.031 4.108c-.033.025-.061.055-.094.08-.291.227-.57.468-.84.719-.092.085-.189.166-.278.253-.245.241-.475.495-.701.755-.239.273-.46.557-.673.847-.109.148-.224.291-.326.444-.156.233-.295.475-.436.717-.086.147-.173.293-.253.444-.127.24-.242.484-.353.732a12.031 12.031 0 0 0-.676 1.881c-.06.219-.121.436-.17.659-.06.273-.103.552-.145.832-.027.178-.062.354-.082.534A13 13 0 0 0 34 42c0 .373.022.749.057 1.128.019.218.049.432.078.646.011.076.016.15.028.226zM47 53c-5.115 0-9.414-3.515-10.639-8.253a11.646 11.646 0 0 1-.258-1.323l-.014-.093A10.38 10.38 0 0 1 36 42c0-.436.033-.866.083-1.292.017-.144.043-.286.066-.429a10.772 10.772 0 0 1 .288-1.318c.071-.248.155-.49.243-.731.058-.158.109-.32.174-.475.147-.35.312-.692.494-1.024.087-.158.187-.308.281-.462.125-.204.253-.406.392-.602a10.748 10.748 0 0 1 .882-1.086c.078-.085.152-.173.232-.255.308-.314.633-.614.982-.892l.002-.001c.356-.285.736-.547 1.132-.791A10.896 10.896 0 0 1 47 31c.426 0 .848.03 1.265.079.126.015.25.039.375.057a10.787 10.787 0 0 1 1.283.271c.269.074.533.16.795.254.133.048.266.093.397.145.297.12.587.257.873.402.081.041.166.075.245.118.343.186.673.394.994.615.13.09.253.189.379.284.2.151.396.306.586.47a11.171 11.171 0 0 1 .93.912c.095.104.193.204.283.312A10.931 10.931 0 0 1 58 42c0 6.065-4.935 11-11 11z"/></svg>