<svg xmlns="http://www.w3.org/2000/svg" viewBox="0 0 511.998 511.998"><path fill="#f9a" d="M217.637 204.592l117.818 299.326 50.672-95.543 102.202 35.37L370.51 144.42z"/><path fill="#ff8095" d="M294.359 204.592L176.54 503.918l-50.671-95.543-102.201 35.37L141.486 144.42z"/><path d="M409.401 243.228L370.51 144.42l-114.512 45.074-114.512-45.074-38.892 98.808c27.548 51.025 79.81 86.822 140.641 91.248l12.763-32.424 12.763 32.424c60.831-4.427 113.092-40.224 140.64-91.248z" opacity=".15" fill="#333"/><circle cx="255.994" cy="160.736" r="152.654" fill="#ffca66"/><path d="M377.215 201.755a8.081 8.081 0 0 1-7.747-10.396c11.318-37.901-1.327-84.848-30.751-114.168a8.083 8.083 0 0 1-.021-11.43 8.08 8.08 0 0 1 11.429-.02c33.983 33.864 47.98 86.205 34.829 130.243-1.044 3.506-4.259 5.771-7.739 5.771zM311.037 55.809a8.058 8.058 0 0 1-3.544-.823c-15.896-7.773-33.701-11.882-51.496-11.882a8.083 8.083 0 0 1 0-16.164c20.241 0 40.503 4.677 58.596 13.525a8.081 8.081 0 0 1 3.709 10.811 8.078 8.078 0 0 1-7.265 4.533z" fill="#fff"/><path d="M255.998 259.512c-54.464 0-98.774-44.31-98.774-98.775s44.31-98.776 98.774-98.776 98.774 44.31 98.774 98.775-44.31 98.776-98.774 98.776z" fill="#fec"/><path d="M192.784 160.738c0-48.395 34.987-88.77 80.994-97.168a98.964 98.964 0 0 0-17.781-1.607c-54.464 0-98.775 44.31-98.775 98.774s44.31 98.775 98.775 98.775c6.069 0 12.011-.554 17.781-1.607-46.007-8.397-80.994-48.772-80.994-97.167z" opacity=".1" fill="#293133"/><g fill="#26150c"><path d="M362.855 160.737c0-58.921-47.935-106.857-106.857-106.857s-106.857 47.935-106.857 106.857 47.935 106.857 106.857 106.857 106.857-47.936 106.857-106.857zm-106.857 90.692c-50.008 0-90.692-40.685-90.692-90.692s40.685-90.692 90.692-90.692 90.692 40.685 90.692 90.692-40.684 90.692-90.692 90.692z"/><path d="M495.849 440.784l-88.701-225.351c6.201-17.081 9.587-35.5 9.587-54.696C416.736 72.106 344.629 0 255.998 0 167.368 0 95.261 72.106 95.261 160.737c0 19.196 3.388 37.615 9.587 54.696l-88.7 225.351a8.08 8.08 0 0 0 1.688 8.554 8.079 8.079 0 0 0 8.476 2.043l95.66-33.106 47.429 89.427a8.082 8.082 0 0 0 14.662-.827L256 324.115l71.937 182.761a8.084 8.084 0 0 0 14.662.827l47.43-89.427 95.66 33.106a8.087 8.087 0 0 0 8.476-2.043 8.084 8.084 0 0 0 1.684-8.555zm-320.396 43.833l-42.444-80.028a8.082 8.082 0 0 0-9.783-3.851l-85.605 29.627 76.418-194.145c-.322.818 2.833 5.121 3.328 5.966a160.217 160.217 0 0 0 30.819 37.892 160.488 160.488 0 0 0 46.78 29.425 161.419 161.419 0 0 0 44.894 11.164l.119.014-64.526 163.936zm95.508-180.108c-74.615 7.66-144.663-45.109-157.433-119.119a145.077 145.077 0 0 1-2.102-24.652c-.001-79.718 64.855-144.574 144.572-144.574 79.718 0 144.574 64.856 144.574 144.573 0 72.766-56.616 135.973-129.026 143.711l-.585.061zm117.81 96.228a8.084 8.084 0 0 0-9.784 3.851l-42.444 80.028-64.526-163.936.119-.014c20.029-2.007 39.655-7.787 57.556-16.996a160.484 160.484 0 0 0 44.137-33.482 160.357 160.357 0 0 0 18.889-24.821c.62-1.004 5.763-8.365 5.243-9.148l76.417 194.145-85.607-29.627z"/></g></svg>