<svg xmlns="http://www.w3.org/2000/svg" viewBox="0 0 512.001 512.001"><path d="M151.23 290.072v99.843h28.68c25.08 0 45.412-20.332 45.412-45.412v-54.432l-74.092.001z" fill="#ff8095"/><path d="M101.238 290.072v119.82c0 21.474 17.409 38.882 38.882 38.882 21.474 0 38.882-17.409 38.882-38.882v-119.82h-77.764z" fill="#ccf7ff"/><path d="M151.23 290.072h-49.992v54.579c44.027 2.203 85.042 7.734 121.586 14.7a45.324 45.324 0 0 0 2.497-14.848v-54.432h-46.318l-27.773.001z" opacity=".15" fill="#333"/><path d="M99.974 130.297c-51.402 2.43-91.832 44.816-91.832 96.274 0 51.459 40.43 93.844 91.832 96.274 174.46 8.248 301.69 67.07 301.69 67.07V63.228s-127.23 58.821-301.69 67.069z" fill="#ccf7ff"/><path d="M115.171 307.648c-51.402-2.429-91.832-44.815-91.832-96.273 0-22.696 7.872-43.62 21.074-60.136-22.152 17.698-36.272 44.929-36.272 75.332 0 51.459 40.43 93.844 91.832 96.274 174.46 8.248 301.69 67.07 301.69 67.07v-21.608c-38.659-15.476-147.608-54.093-286.492-60.659z" opacity=".1" fill="#333"/><ellipse cx="401.666" cy="226.572" rx="102.191" ry="163.339" fill="#ff8095"/><path d="M401.664 341.067c-21.237 0-53.347-45.665-53.347-114.496 0-68.83 32.109-114.496 53.347-114.496s53.346 45.665 53.346 114.496-32.108 114.496-53.346 114.496z" fill="#526366"/><path d="M401.664 112.076c-4.85 0-10.268 2.389-15.74 6.884 18.489 15.189 37.606 54.5 37.606 107.611s-19.116 92.423-37.606 107.611c5.472 4.495 10.89 6.884 15.74 6.884 21.237 0 53.346-45.665 53.346-114.496s-32.108-114.494-53.346-114.494z" opacity=".15" fill="#333"/><path d="M348.318 226.571c0 15.041 1.534 28.976 4.151 41.57h49.195v-83.139h-49.195c-2.618 12.593-4.151 26.528-4.151 41.569z" fill="#85a1a6"/><ellipse cx="401.666" cy="226.572" rx="20.152" ry="41.576" fill="#ccf7ff"/><path d="M123.865 234.713H50.477c-4.497 0-8.141-3.645-8.141-8.141s3.644-8.141 8.141-8.141h73.387c4.497 0 8.141 3.645 8.141 8.141s-3.644 8.141-8.14 8.141zM131 207.774H57.612c-4.497 0-8.141-3.645-8.141-8.141s3.644-8.141 8.141-8.141h73.387c4.497 0 8.141 3.645 8.141 8.141s-3.643 8.141-8.14 8.141zm0 53.878H57.612c-4.497 0-8.141-3.645-8.141-8.141s3.644-8.141 8.141-8.141h73.387c4.497 0 8.141 3.645 8.141 8.141s-3.643 8.141-8.14 8.141z" fill="#526366"/><g fill="#26150c"><path d="M123.864 234.712a8.14 8.14 0 0 0 8.141-8.141 8.14 8.14 0 0 0-8.141-8.141H50.477a8.14 8.14 0 0 0-8.141 8.141 8.14 8.14 0 0 0 8.141 8.141h73.387zm7.137-43.221H57.613a8.14 8.14 0 0 0-8.141 8.141 8.14 8.14 0 0 0 8.141 8.141H131a8.14 8.14 0 0 0 8.141-8.141 8.14 8.14 0 0 0-8.14-8.141zm0 53.878H57.613c-4.497 0-8.141 3.644-8.141 8.141s3.644 8.141 8.141 8.141H131c4.496 0 8.141-3.644 8.141-8.141s-3.645-8.141-8.14-8.141z"/><path d="M480.828 106.752c-20.844-33.317-48.959-51.667-79.164-51.667-18.129 0-35.503 6.617-51.006 19.106-56.045 19.227-144.645 42.941-251.07 47.974C43.745 124.805 0 170.665 0 226.571c0 53.719 40.392 98.156 93.098 103.893v79.428c0 25.93 21.095 47.024 47.024 47.024s47.024-21.095 47.024-47.024v-12.338c25.158-3.415 44.821-24.353 46.233-50.085 47.076 9.363 86.95 21.076 117.282 31.482 15.502 12.488 32.876 19.105 51.004 19.105 30.205 0 58.32-18.348 79.164-51.666 20.102-32.129 31.172-74.682 31.172-119.82-.001-45.136-11.071-87.689-31.173-119.818zM170.862 389.915v19.977c0 16.95-13.791 30.741-30.741 30.741s-30.741-13.791-30.741-30.741v-78.389c2.417.142 4.839.296 7.262.459.149.01.3.018.449.029a885.953 885.953 0 0 1 7.762.56 900.045 900.045 0 0 1 46.007 4.719v52.645h.002zm46.318-45.41c0 18.075-12.935 33.187-30.035 36.565v-41.544a932.266 932.266 0 0 1 30.035 4.917v.062zm-105.436-29.171l-.554-.034a868.739 868.739 0 0 0-10.832-.586c-47.144-2.231-84.075-40.947-84.075-88.144s36.931-85.913 84.075-88.141c91.967-4.349 170.87-22.402 227.519-39.733-4.534 6.319-8.696 13.196-12.465 20.535l-.086.169c-23.219 45.58-28.791 97.693-20.913 147.876 3.57 22.735 10.378 45.901 20.895 66.435l.107.212c3.768 7.334 7.928 14.207 12.46 20.523-54.292-16.611-129.039-33.877-216.131-39.112zm355.281 22.421c-17.759 28.385-40.972 44.019-65.361 44.019-14.414 0-28.416-5.463-41.125-15.789a8.118 8.118 0 0 0-.549-.497 100.06 100.06 0 0 1-8.741-8.173l-.035-.037a108.406 108.406 0 0 1-2.204-2.406c-4.477-5.046-8.73-10.759-12.708-17.118-39.662-63.394-39.711-158.891 0-222.368 3.961-6.332 8.196-12.024 12.652-17.055 3.496-3.91 7.175-7.487 11.035-10.676.193-.16.377-.328.553-.502 12.708-10.324 26.708-15.787 41.122-15.787 24.389 0 47.601 15.633 65.361 44.019 18.503 29.574 28.693 69.06 28.693 111.184s-10.191 81.612-28.693 111.186z"/><path d="M401.665 103.935c-14.244 0-29.878 13.363-41.82 35.745-6.719 12.593-11.821 27.188-15.151 42.915a8.023 8.023 0 0 0-.195.751c-5.872 28.331-5.861 58.116 0 86.453.053.256.12.506.196.752 3.329 15.726 8.43 30.321 15.15 42.914 11.942 22.382 27.576 35.745 41.82 35.745s29.877-13.363 41.819-35.746c12.683-23.77 19.668-54.628 19.668-86.892 0-32.263-6.985-63.121-19.668-86.892-11.942-22.384-27.576-35.745-41.819-35.745zM359.216 260c-1.274-7.491-2.099-15.205-2.49-23.064-.046-.94-.09-1.879-.124-2.832a220.586 220.586 0 0 1-.142-7.471v-.122c0-1.817.034-3.601.078-5.372a197.161 197.161 0 0 1 .188-4.928c.391-7.859 1.216-15.575 2.49-23.066h21.151c-8.774 17.361-8.903 39.792-3.361 58.137a82.306 82.306 0 0 0 3.19 8.744c-1.997-.061-20.884.548-20.98-.026zm42.449 72.926c-9.506 0-28.963-19.583-38.963-56.644h38.963c16.13 0 28.293-21.372 28.293-49.712s-12.163-49.712-28.293-49.712l-.026.001h-38.937c10-37.061 29.457-56.644 38.963-56.644 13.119 0 45.205 37.269 45.205 106.354-.002 69.088-32.086 106.357-45.205 106.357zm-12.011-106.355c0-23.368 9.114-33.427 12.009-33.428h.008c2.902.014 12.004 10.074 12.004 33.428 0 23.371-9.115 33.429-12.01 33.429-2.896-.001-12.011-10.06-12.011-33.429z"/></g></svg>