<svg xmlns="http://www.w3.org/2000/svg" viewBox="0 0 512 512"><path fill="#877c67" d="M73.607 84.129h364.8v419.945h-364.8z"/><path fill="#fff9f2" d="M117.479 125.77h277.045v343.863H117.479z"/><path d="M148.128 84.129v24.375c0 35.153 28.599 63.752 63.752 63.752h88.239c35.153 0 63.752-28.599 63.752-63.752V84.129H148.128z" opacity=".15" fill="#333"/><path d="M169.276 53.77v54.732c0 23.53 19.074 42.604 42.604 42.604h88.239c23.53 0 42.604-19.074 42.604-42.604V53.77H169.276z" fill="#85a1a6"/><path d="M255.999 7.931c-25.868 0-46.837 20.97-46.837 46.837v44.841h93.675V54.768c0-25.868-20.97-46.837-46.838-46.837z" fill="#ccf7ff"/><circle cx="256.002" cy="32.251" r="8.992" fill="#293133"/><g fill="#26150c"><circle cx="256.002" cy="32.251" r="8.992"/><path d="M174.37 200.161h163.259a7.931 7.931 0 0 0 0-15.862H174.37a7.931 7.931 0 0 0 0 15.862zm0 37.008h163.259a7.931 7.931 0 0 0 0-15.862H174.37a7.931 7.931 0 0 0 0 15.862zm0 37.009h163.259a7.931 7.931 0 0 0 0-15.862H174.37a7.931 7.931 0 0 0 0 15.862zm0 37.009h163.259a7.931 7.931 0 0 0 0-15.862H174.37a7.931 7.931 0 0 0 0 15.862zm0 37.009h163.259a7.931 7.931 0 0 0 0-15.862H174.37a7.931 7.931 0 0 0 0 15.862zm163.258 67.065h-59.631a7.931 7.931 0 0 0 0 15.862h59.631a7.931 7.931 0 0 0 0-15.862z"/><path d="M438.398 76.198h-87.745V53.77a7.931 7.931 0 0 0-7.931-7.931h-32.694C305.75 19.873 283.157 0 255.999 0s-49.751 19.873-54.028 45.839h-32.694a7.931 7.931 0 0 0-7.931 7.931v22.428H73.601a7.931 7.931 0 0 0-7.931 7.931V504.07a7.931 7.931 0 0 0 7.931 7.931h364.797a7.931 7.931 0 0 0 7.931-7.931V84.129a7.932 7.932 0 0 0-7.931-7.931zm-221.305-21.43c0-.105.007-.208.008-.313l.001-.032.015-.484-.001-.041c.464-21.051 17.721-38.037 38.884-38.037 21.162 0 38.419 16.985 38.885 38.038l-.001.041.015.484.001.032c.001.105.008.207.008.313v36.909h-77.814v-36.91h-.001zm-39.886 29.361V61.701h24.024V99.61a7.931 7.931 0 0 0 7.931 7.931h93.675a7.931 7.931 0 0 0 7.931-7.931V61.701h24.024v46.803c0 13.349-8.074 26.286-20.513 31.444-7.896 3.274-16.702 3.323-25.25 3.323l-66.279.002c-8.435 0-17.122-.047-24.922-3.255-12.508-5.145-20.62-18.106-20.62-31.515V84.129h-.001zm-9.131 49.569c7.794 10.345 14.346 18.352 27.414 22.262 10.933 3.272 22.537 3.293 33.949 3.286l55.354-.029c11.642-.006 23.588-.066 34.461-4.224 10.499-4.016 19.024-11.677 24.684-21.317 14.177.314 28.45.019 42.653.019v328.003H125.408V133.696c14.204 0 28.472.271 42.668.002zm262.391 362.441H81.531V92.059h79.814v16.444c0 3.189.311 6.305.879 9.333h-44.747a7.931 7.931 0 0 0-7.931 7.931v343.864a7.931 7.931 0 0 0 7.931 7.931h277.045a7.931 7.931 0 0 0 7.931-7.931V125.766a7.931 7.931 0 0 0-7.931-7.931h-44.748c.568-3.026.879-6.144.879-9.333V92.059h79.814v404.08z"/></g></svg>