<svg xmlns="http://www.w3.org/2000/svg" viewBox="0 0 511.999 511.999"><path d="M112.208 65.133c-1.943-6.565-11.241-6.565-13.184 0l-21.552 88.336h56.288l-21.552-88.336z" fill="#ff734d"/><path fill="#ff8766" d="M62.379 138.976h86.471v42.757H62.379z"/><path d="M156.676 169.767H54.556c-25.837 0-46.782 20.945-46.782 46.782v188.458c0 25.837 20.945 46.782 46.782 46.782h102.12c25.837 0 46.782-20.945 46.782-46.782V216.549c0-25.836-20.946-46.782-46.782-46.782z" fill="#ccf7ff"/><g fill="#333"><path opacity=".15" d="M62.384 155.007h86.471v14.883H62.384z"/><path d="M29.749 405.006V216.549c0-25.837 20.945-46.782 46.782-46.782h-21.97c-25.837 0-46.782 20.945-46.782 46.782v188.458c0 25.837 20.945 46.782 46.782 46.782h21.971c-25.838-.001-46.783-20.945-46.783-46.783z" opacity=".1"/></g><path d="M152.207 222.607H59.025c-7.368 0-13.342 5.973-13.342 13.342v149.66c0 7.368 5.973 13.342 13.342 13.342h93.181c7.368 0 13.342-5.973 13.342-13.342V235.948c0-7.368-5.973-13.341-13.341-13.341z" fill="#ff734d"/><path d="M413.083 91.112L253.727 307.046l35.82-1.212 14.222 38.143 122.427-165.892c20.396-27.638 14.525-66.577-13.113-86.973z" fill="#ccf7ff"/><path d="M305.495 268.978a74.546 74.546 0 0 0-18.262-7.336l-33.507 45.404 35.82-1.212 14.222 38.143 32.066-43.45c-7.035-13.41-17.331-24.213-30.339-31.549z" opacity=".15" fill="#333"/><path d="M295.311 287.035c-33.34-18.803-80.276 1.255-104.836 44.801s-17.441 94.09 15.899 112.893c33.34 18.803 80.276-1.255 104.836-44.801 24.56-43.545 17.441-94.089-15.899-112.893zm-15.702 95.072c-7.868 13.951-19.451 24.974-31.781 30.243-5.314 2.271-15.452 5.393-23.631.78-8.179-4.613-10.752-14.903-11.559-20.627-1.87-13.277 1.57-28.892 9.438-42.843 7.868-13.951 19.451-24.974 31.782-30.244 5.314-2.271 15.452-5.393 23.631-.78 8.178 4.613 10.752 14.903 11.558 20.626 1.87 13.278-1.57 28.895-9.438 42.845z" fill="#4da3ff"/><path d="M266.994 91.112l159.357 215.934-35.821-1.212-14.222 38.143-122.426-165.892c-20.398-27.638-14.526-66.577 13.112-86.973z" fill="#8fadb3"/><path d="M376.307 343.977l14.222-38.143 35.821 1.212-33.507-45.404a74.6 74.6 0 0 0-18.263 7.336c-13.008 7.336-23.304 18.138-30.339 31.548l32.066 43.451z" opacity=".15" fill="#333"/><path d="M489.601 331.837c-24.559-43.546-71.495-63.604-104.836-44.801-33.34 18.803-40.459 69.347-15.899 112.893s71.495 63.604 104.836 44.801c33.34-18.803 40.458-69.347 15.899-112.893zm-22.163 60.665c-.807 5.724-3.38 16.014-11.559 20.627-8.179 4.613-18.317 1.49-23.631-.78-12.33-5.269-23.913-16.292-31.781-30.243-7.868-13.951-11.308-29.566-9.438-42.844.806-5.723 3.38-16.013 11.558-20.626 8.179-4.613 18.317-1.49 23.631.78 12.331 5.27 23.914 16.293 31.782 30.244 7.868 13.95 11.308 29.566 9.438 42.842z" fill="#4da3ff"/><g fill="#26150c"><circle cx="340.037" cy="242.424" r="12.169"/><path d="M281.308 311.866c-3.979-2.244-8.537-3.382-13.545-3.382-6.696 0-12.92 2.057-16.961 3.783-13.869 5.928-26.808 18.165-35.497 33.572-8.69 15.409-12.468 32.812-10.365 47.748 1.007 7.143 4.352 20.059 15.438 26.312 3.979 2.244 8.537 3.382 13.545 3.382 6.697 0 12.92-2.057 16.96-3.784 13.869-5.927 26.807-18.164 35.497-33.572 8.691-15.409 12.468-32.812 10.365-47.747-1.005-7.143-4.349-20.06-15.437-26.312zm-8.47 66.422c-7.045 12.493-17.275 22.302-28.063 26.914-3.824 1.634-7.678 2.532-10.851 2.532-2.299 0-4.287-.462-5.906-1.376-5.465-3.083-7.192-11.475-7.68-14.94-1.636-11.619 1.466-25.448 8.511-37.94 7.045-12.492 17.275-22.301 28.064-26.913 3.825-1.635 7.679-2.533 10.852-2.533 2.299 0 4.287.462 5.908 1.377 5.465 3.082 7.191 11.473 7.679 14.938 1.634 11.62-1.469 25.449-8.514 37.941z"/><path d="M496.372 328.018c-19.123-33.906-52.123-55.815-84.073-55.815-.662 0-1.321.011-1.978.03l-21.972-29.773 44.101-59.759c11.098-15.037 15.675-33.497 12.89-51.976-2.786-18.482-12.603-34.77-27.64-45.868a7.772 7.772 0 0 0-10.872 1.639l-66.789 90.502-66.789-90.502a7.773 7.773 0 0 0-10.872-1.639c-15.037 11.098-24.854 27.386-27.639 45.868-2.786 18.481 1.791 36.939 12.889 51.976l44.101 59.759-21.972 29.773a68.394 68.394 0 0 0-1.978-.03c-19.604 0-39.599 8.259-56.545 22.467v-78.12c0-30.083-24.474-54.557-54.556-54.557h-.048v-23.019a7.774 7.774 0 0 0-7.774-7.774H136.33l-16.567-67.907a9.86 9.86 0 0 0-.098-.365c-1.857-6.275-7.503-10.492-14.046-10.492-6.544 0-12.189 4.216-14.046 10.492-.036.12-.068.242-.098.365L74.908 131.2h-12.53a7.774 7.774 0 0 0-7.774 7.774v23.019h-.048C24.474 161.992 0 186.467 0 216.55v188.458c0 30.082 24.474 54.556 54.556 54.556h102.118c13.797 0 26.816-5.144 36.808-14.314a62.203 62.203 0 0 0 9.072 6.252c9.484 5.348 20.033 8.061 31.353 8.061 31.948 0 64.951-21.911 84.073-55.814 15.5-27.483 19.089-57.726 12.098-82.332l9.958-13.494 9.958 13.494c-6.991 24.606-3.402 54.85 12.098 82.332 19.121 33.903 52.122 55.81 84.073 55.814h.005c11.318 0 21.864-2.713 31.349-8.06 18.282-10.31 30.194-29.081 33.541-52.855 3.242-23.007-1.975-48.089-14.688-70.63zm-81.975-225.594c8.345 8.206 13.791 18.84 15.568 30.619 2.167 14.373-1.394 28.731-10.025 40.427l-41.253 55.898-28.986-39.278 64.696-87.666zM105.616 70.912l14.708 60.286H90.908l14.708-60.286zm-35.463 75.836h70.926v15.245H70.153v-15.245zm86.523 297.266H54.556c-21.509 0-39.008-17.498-39.008-39.008V216.55c0-21.509 17.498-39.009 39.008-39.009h102.118c21.509 0 39.008 17.499 39.008 39.009v93.876c-.395.486-.77.994-1.159 1.487a125.07 125.07 0 0 0-2.635 3.446 123.599 123.599 0 0 0-2.295 3.221c-.219.32-.433.643-.65.964a125.426 125.426 0 0 0-2.834 4.405 126.146 126.146 0 0 0-2.41 4.069 126.892 126.892 0 0 0-2.093 3.88c-.241.466-.471.933-.707 1.4a120.757 120.757 0 0 0-2.047 4.254c-.315.687-.62 1.376-.921 2.066a115.1 115.1 0 0 0-.881 2.052c-.21.507-.407 1.015-.61 1.523a121.803 121.803 0 0 0-3.273 9.236l-.098.313a117.415 117.415 0 0 0-.99 3.419l-.039.147a112.769 112.769 0 0 0-3.352 17.706l-.015.142a104.918 104.918 0 0 0-.567 9.434c-.006.405-.019.811-.021 1.215-.002.68.011 1.358.022 2.036a99.752 99.752 0 0 0 .129 3.767c.057 1.062.134 2.118.225 3.168.02.226.033.455.055.68.133 1.406.297 2.801.491 4.185l.001.005a90.05 90.05 0 0 0 .665 4.023c.051.274.105.548.158.82.209 1.062.437 2.116.684 3.161.075.323.147.65.226.972.297 1.193.611 2.377.957 3.545.195.664.414 1.311.624 1.965.151.465.296.931.454 1.393a80.589 80.589 0 0 0 1.116 3.037c2.328 5.992 5.312 11.486 8.924 16.386-7.117 6.456-16.361 10.066-26.14 10.066zm147.763-47.905c-16.412 29.101-44.097 47.905-70.53 47.905-8.611 0-16.59-2.038-23.715-6.056-4.192-2.363-7.94-5.356-11.22-8.881-.03-.033-.055-.068-.085-.101-7.988-8.648-13.093-20.682-14.696-34.37-.034-.292-.071-.584-.102-.877a77.069 77.069 0 0 1-.271-3.231c-.053-.826-.1-1.653-.129-2.489l-.007-.293c-.419-13.852 2.644-28.577 8.728-42.392.072-.164.147-.327.22-.491.385-.862.781-1.721 1.191-2.576.232-.482.471-.961.71-1.44.298-.602.593-1.203.904-1.801a112.502 112.502 0 0 1 1.813-3.357 111.95 111.95 0 0 1 2.487-4.174c.136-.219.271-.441.409-.659a111.687 111.687 0 0 1 3.036-4.544c.907-1.29 1.835-2.559 2.792-3.801.086-.112.174-.221.262-.333a105.794 105.794 0 0 1 3.133-3.853c.011-.012.019-.025.029-.037 16.219-18.975 37.684-30.507 58.382-30.507 1.666 0 3.3.1 4.917.252.017.001.034.006.051.009a48.286 48.286 0 0 1 11.561 2.542c.311.112.624.222.933.339.469.178.933.364 1.396.556.471.197.937.404 1.401.617.341.156.685.308 1.023.473a45.896 45.896 0 0 1 2.433 1.268l.023.014c.805.455 1.586.94 2.356 1.437.253.164.502.332.751.5.539.364 1.067.74 1.588 1.124.256.19.518.374.771.57.658.506 1.3 1.03 1.928 1.569.352.303.693.62 1.036.933a45.392 45.392 0 0 1 2.06 1.992c.154.158.304.323.456.485 5.092 5.404 9.079 12.128 11.752 19.942.071.208.167.404.254.604 6.965 21.012 3.989 48.276-10.031 73.132zm18.764-91.56c-4.522-7.971-10.403-14.697-17.441-19.955a61.374 61.374 0 0 0-3.189-2.233l-.189-.12a61.062 61.062 0 0 0-3.253-1.976l-.02-.011a62.49 62.49 0 0 0-2.657-1.405l-.421-.212a61.451 61.451 0 0 0-9.03-3.592l14.386-19.493 28.986 39.278-7.172 9.719zm-7.222-55.41l-8.336-11.295-47.508-64.375c-8.632-11.696-12.191-26.053-10.025-40.427 1.776-11.779 7.223-22.413 15.568-30.619l127.392 172.621a61.607 61.607 0 0 0-9.033 3.594l-.414.207c-.895.45-1.784.913-2.661 1.408l-.02.011a60.496 60.496 0 0 0-3.255 1.978l-.186.117a62.426 62.426 0 0 0-3.121 2.184l-.067.049c-7.039 5.258-12.92 11.986-17.443 19.957l-40.891-55.41zm179.684 147.339c-2.658 18.871-11.814 33.603-25.782 41.48-7.126 4.017-15.101 6.055-23.709 6.055h-.005c-26.436-.003-54.12-18.806-70.531-47.905-14.019-24.857-16.997-52.12-10.03-73.133.088-.201.184-.397.255-.606 2.67-7.806 6.653-14.525 11.739-19.927.158-.168.315-.339.475-.505a43.871 43.871 0 0 1 2.065-1.994c.339-.31.677-.624 1.025-.924a46.498 46.498 0 0 1 1.933-1.573c.25-.194.508-.375.762-.563a48.73 48.73 0 0 1 1.596-1.129c.248-.167.495-.334.746-.496a46.295 46.295 0 0 1 2.358-1.438l.023-.014.034-.018c.789-.443 1.59-.856 2.399-1.25.337-.165.68-.317 1.023-.473a43.124 43.124 0 0 1 3.73-1.512 48.393 48.393 0 0 1 11.561-2.542c.017-.001.034-.006.051-.009a52.39 52.39 0 0 1 4.917-.252c26.434 0 54.117 18.804 70.53 47.906 11.042 19.581 15.601 41.182 12.835 60.822z"/><path d="M429.273 312.267c-4.041-1.726-10.263-3.783-16.96-3.783-5.009 0-9.566 1.137-13.545 3.381-11.088 6.253-14.431 19.171-15.438 26.314-2.103 14.935 1.674 32.338 10.365 47.747 8.69 15.409 21.628 27.645 35.498 33.573 4.041 1.726 10.263 3.782 16.959 3.782 5.009 0 9.566-1.138 13.545-3.382 11.087-6.252 14.431-19.169 15.439-26.313 2.103-14.935-1.674-32.338-10.365-47.747-8.69-15.407-21.628-27.644-35.498-33.572zm30.467 79.151c-.488 3.465-2.214 11.857-7.68 14.941-1.619.913-3.607 1.376-5.906 1.376-3.173 0-7.027-.899-10.851-2.532-10.79-4.611-21.018-14.421-28.064-26.914-7.045-12.491-10.148-26.321-8.512-37.94.488-3.465 2.213-11.857 7.679-14.939 1.619-.913 3.607-1.376 5.906-1.376 3.173 0 7.027.899 10.85 2.532 10.791 4.612 21.02 14.421 28.065 26.914s10.149 26.32 8.513 37.938z"/></g></svg>