<svg xmlns="http://www.w3.org/2000/svg" viewBox="0 0 512.001 512.001"><path d="M137.888 151.37c-21.524 0-38.972 17.448-38.972 38.972s17.448 38.972 38.972 38.972h17.886V151.37h-17.886zm236.226 0c21.524 0 38.972 17.448 38.972 38.972s-17.448 38.972-38.972 38.972h-17.886V151.37h17.886zM222.413 281.376h67.171v76.144h-67.171z" fill="#f4c49d"/><path d="M222.414 328.439a142.682 142.682 0 0 0 33.588 3.999c11.566 0 22.811-1.392 33.588-3.999v-50.06h-67.175l-.001 50.06z" opacity=".15" fill="#333"/><path d="M144.291 81.578c-6.323 14.712-9.825 30.921-9.825 47.95v63.055c0 67.122 54.413 121.535 121.535 121.535s121.535-54.413 121.535-121.535v-63.055c0-17.176-3.563-33.519-9.99-48.333l-223.255.383z" fill="#fccda2"/><path d="M321.454 346.863H190.55c-50.608 0-91.633 41.025-91.633 91.633v65.511h314.169v-65.511c.001-50.607-41.025-91.633-91.632-91.633z" fill="#224973"/><path d="M155.773 353.713c-33.357 13.697-56.856 46.489-56.856 84.784v65.511h56.856V353.713zm200.457 0c33.357 13.697 56.856 46.489 56.856 84.784v65.511H356.23V353.713zM256.005 459.547L335.53 347.94a92.275 92.275 0 0 0-14.077-1.077H190.55c-4.785 0-9.483.37-14.07 1.076l79.525 111.608z" fill="#fff9f2"/><path fill="#f9a" d="M263.86 346.863l12.479 17.049-12.479 21.803h-15.717l-12.478-21.803 12.478-17.049z"/><path fill="#ff8095" d="M274.92 432.992l-11.06-47.277h-15.717l-11.059 47.277 18.921 26.555z"/><path d="M256.002 7.993c-57.987 0-106.481 40.613-118.609 94.944 4.114 7.586 12.146 12.737 21.381 12.737 13.425 0 24.308-10.883 24.308-24.306 0 13.425 10.883 24.306 24.306 24.306 13.424 0 24.308-10.883 24.308-24.306 0 13.425 10.883 24.306 24.306 24.306 13.424 0 24.308-10.883 24.308-24.306 0 13.425 10.883 24.306 24.306 24.306s24.306-10.883 24.306-24.306c0 13.425 10.883 24.306 24.307 24.306 9.235 0 17.268-5.152 21.381-12.737-12.127-54.332-60.621-94.944-118.608-94.944z" fill="#293133"/><path d="M144.291 81.578c-6.323 14.711-9.825 30.921-9.825 47.95v63.055c0 67.122 54.413 121.535 121.535 121.535 3.774 0 7.504-.181 11.19-.518-61.876-5.649-110.346-57.669-110.346-121.018v-63.055c0-17.029 3.502-33.238 9.825-47.95.001.001-22.379.001-22.379.001z" opacity=".1" fill="#333"/><path d="M159.771 102.937c11.339-50.796 54.468-89.592 107.42-94.427a122.814 122.814 0 0 0-11.19-.517c-57.987 0-106.481 40.613-118.609 94.944 4.114 7.586 11.108 12.657 20.343 12.657l2.036-12.657z" fill="#1c2223"/><g fill="#26150c"><circle cx="199.106" cy="173.538" r="15.734"/><circle cx="313.072" cy="173.538" r="15.734"/><path d="M420.586 434.267c-.983-14.086-3.555-27.874-10.223-40.995-10.5-20.66-28.443-37.059-49.685-46.207-20.422-8.795-41.256-8.195-63.007-8.195v-23.604c37.027-12.584 66.578-41.49 80.041-78.104 24.263-1.802 43.456-22.105 43.456-46.82 0-21.63-15.119-40.365-35.55-45.532v-15.282c0-9.442-1.028-18.88-3.052-28.033l-.066-.298c-6.312-28.278-22.248-53.96-44.872-72.313C314.665 10.257 285.708 0 256.088 0c-29.619 0-58.577 10.257-81.538 28.884-22.624 18.355-38.56 44.035-44.877 72.332l-.052.236a130.096 130.096 0 0 0-3.062 28.078v15.282c-20.431 5.167-35.55 23.901-35.55 45.532 0 24.715 19.193 45.017 43.455 46.82 13.463 36.614 43.015 65.521 80.041 78.104v23.604c-15.785 0-31.677-.974-47.139 2.84-18.409 4.541-35.585 14.227-48.721 27.935-18.228 19.022-28.404 45.488-27.8 71.811.444 19.34.162 38.733.162 58.089v4.461A7.993 7.993 0 0 0 99 512.001h314.171a7.993 7.993 0 0 0 7.993-7.993v-37.967c.003-10.655.152-21.297-.578-31.774zM382.89 219.069c3.873-18.636 2.727-37.851 2.727-56.773 0-.05.043-.715 0-.732 11.466 4.598 19.564 15.915 19.564 28.777 0 14.146-9.531 26.11-22.51 29.802.079-.357.145-.716.219-1.074zm-275.893-28.728c0-12.862 8.099-24.179 19.564-28.777 0 19.151-1.213 38.623 2.727 57.504.075.358.141.717.218 1.075-12.977-3.693-22.509-15.656-22.509-29.802zm40.872 305.673h-40.872v-57.518c0-1.291.039-2.572.098-3.847.013-.283.026-.566.042-.848.071-1.283.163-2.562.292-3.829l.007-.064c.135-1.318.305-2.626.501-3.926l.051-.35c3.884-25.055 18.933-46.46 39.881-58.979v129.361zm173.007-141.159l-42.113 59.103-6.317-27.003 10.917-19.073a7.992 7.992 0 0 0-.487-8.691l-3.174-4.335h41.174v-.001zm-61.563 22.867h-6.447l-7.598-13.276 7.019-9.589h7.607l7.019 9.589-7.6 13.276zm7.089 53.575l-10.311 14.475-7.591-10.653-2.725-3.825 8.793-37.588h3.038l8.796 37.591zm-2.455-92.427h-33.453v-19.292c.821.164 1.643.314 2.467.462 16.074 2.894 32.706 2.749 48.723-.462v19.292h-17.737zM184.622 41.298c20.121-16.322 45.502-25.312 71.467-25.312s51.345 8.99 71.467 25.312c18.977 15.394 32.584 36.656 38.572 60.16l-.102.13c-9.471 11.769-29.023 4.795-29.023-10.22a7.993 7.993 0 1 0-15.986 0c0 8.996-7.318 16.315-16.315 16.315-8.996 0-16.315-7.318-16.315-16.315a7.993 7.993 0 1 0-15.986 0c0 5.623-2.859 10.59-7.199 13.525a16.223 16.223 0 0 1-9.115 2.79c-7.309 0-13.511-4.831-15.579-11.468a16.272 16.272 0 0 1-.734-4.846 7.993 7.993 0 1 0-15.986 0c0 8.996-7.319 16.315-16.315 16.315-8.996 0-16.315-7.318-16.315-16.315a7.993 7.993 0 1 0-15.986 0 16.21 16.21 0 0 1-1.971 7.77 16.416 16.416 0 0 1-2.811 3.761c-6.673 6.673-18.336 6.032-24.243-1.314l-.099-.126c5.991-23.505 19.599-44.769 38.574-60.162zm-37.488 182.844a110.987 110.987 0 0 1-1.337-4.931c-5.381-21.792-3.25-45.397-3.25-67.683v-22.001c0-3.349.147-6.696.44-10.027 6.694 3.773 14.758 5.056 22.289 3.526a32.225 32.225 0 0 0 10.019-3.862c.75-.445 8.404-5.944 7.873-6.55 5.925 6.769 14.626 11.051 24.308 11.051s18.382-4.283 24.308-11.051c5.925 6.769 14.626 11.051 24.308 11.051a32.154 32.154 0 0 0 13.562-2.988 32.48 32.48 0 0 0 10.744-8.064c5.925 6.768 14.626 11.051 24.308 11.051 9.681 0 18.382-4.283 24.307-11.051-.496.566 6.822 5.911 7.539 6.348a32.204 32.204 0 0 0 9.565 3.893c7.752 1.773 16.149.552 23.078-3.356.293 3.33.44 6.679.44 10.027v22.001c0 39.463 1.791 78.294-24.327 110.763-19.783 24.593-49.792 40.307-81.201 42.984-19.91 1.697-40.13-1.948-58.069-10.796-28.374-13.987-49.952-40.089-58.904-70.335zm75.368 130.713h9.975l-3.174 4.335a7.992 7.992 0 0 0-.487 8.691l10.917 19.073-6.315 26.995-42.108-59.095h31.192v.001zm125.822 141.159h-184.47V359.28a83.174 83.174 0 0 1 9.169-2.542l65.862 92.433 10.699 15.015a7.995 7.995 0 0 0 6.51 3.355c.233 0 .464-.022.694-.042.088-.007.178-.005.266-.016.188-.022.37-.065.555-.101.127-.025.257-.039.382-.069.079-.019.156-.05.233-.071a7.983 7.983 0 0 0 4.379-3.054l76.56-107.447a82.686 82.686 0 0 1 9.163 2.54v136.734h-.002zm56.858 0H364.31v-129.36c20.947 12.519 35.996 33.924 39.879 58.979l.052.35c.196 1.299.366 2.608.5 3.926l.007.064a83.256 83.256 0 0 1 .334 4.677c.059 1.276.098 2.557.098 3.847v57.517h.002z"/><path d="M301.274 241.364c3.588-2.57 4.414-7.563 1.843-11.151s-7.564-4.416-11.153-1.843c-7.498 5.371-21.244 8.708-35.871 8.708-14.634 0-28.381-3.339-35.878-8.713a7.994 7.994 0 0 0-9.314 12.993c10.224 7.33 27.118 11.706 45.191 11.706 18.065-.001 34.955-4.375 45.182-11.7z"/></g></svg>