<?xml version="1.0" encoding="iso-8859-1"?>
<!-- Generator: Adobe Illustrator 19.0.0, SVG Export Plug-In . SVG Version: 6.00 Build 0)  -->
<svg version="1.1" id="Layer_1" xmlns="http://www.w3.org/2000/svg" xmlns:xlink="http://www.w3.org/1999/xlink" x="0px" y="0px"
	 viewBox="0 0 512 512" style="enable-background:new 0 0 512 512;" xml:space="preserve">
<path style="fill:#FFCA66;" d="M252.477,17.833H113.46c-16.256,0-29.434,13.178-29.434,29.434v171.186h197.885V47.267
	C281.911,31.011,268.733,17.833,252.477,17.833z"/>
<path style="opacity:0.15;fill:#333333;enable-background:new    ;" d="M137.448,17.833H113.46
	c-16.256,0-29.434,13.178-29.434,29.434v171.186h23.988V47.267C108.014,31.011,121.192,17.833,137.448,17.833z"/>
<g>
	<rect x="48.226" y="369.848" style="fill:#734734;" width="42.807" height="124.322"/>
	<rect x="420.964" y="369.848" style="fill:#734734;" width="42.807" height="124.322"/>
</g>
<g>
	<rect x="420.964" y="369.848" style="opacity:0.15;fill:#333333;enable-background:new    ;" width="42.807" height="75.127"/>
	<rect x="48.226" y="369.848" style="opacity:0.15;fill:#333333;enable-background:new    ;" width="42.807" height="75.127"/>
</g>
<rect x="8.178" y="196.646" style="fill:#734734;" width="495.643" height="51.421"/>
<rect x="25.04" y="249.898" style="fill:#B06D4F;" width="461.024" height="175.1"/>
<rect x="25.488" y="248.067" style="opacity:0.15;fill:#333333;enable-background:new    ;" width="461.024" height="21.807"/>
<path style="fill:#8AE6A1;" d="M368.192,103.418c-3.775,9.599-1.787,20.941,5.972,28.7c7.76,7.76,19.101,9.747,28.7,5.972
	c3.775-9.599,1.787-20.941-5.972-28.7S377.793,99.643,368.192,103.418z"/>
<circle style="fill:#D9576D;" cx="405.416" cy="175.046" r="41.521"/>
<path style="opacity:0.15;fill:#333333;enable-background:new    ;" d="M382.802,169.596c0-19.677,13.693-36.143,32.066-40.423
	c-3.037-0.708-6.198-1.094-9.45-1.094c-22.929,0-41.516,18.587-41.516,41.516s18.587,41.516,41.516,41.516
	c3.253,0,6.412-0.386,9.45-1.094C396.494,205.74,382.802,189.273,382.802,169.596z"/>
<path style="fill:#26150C;" d="M503.822,188.467h-50.566c1.2-4.272,1.856-8.769,1.856-13.419c0-24.888-18.393-45.558-42.299-49.14
	c-0.567-8.253-4.051-16.214-10.137-22.299c-6.591-6.592-15.355-10.222-24.679-10.222c-4.405,0-8.711,0.814-12.796,2.422
	c-2.114,0.831-3.787,2.503-4.618,4.618c-5.088,12.939-2.026,27.649,7.799,37.475c0.66,0.66,1.348,1.281,2.049,1.881
	c-9.275,9.211-14.707,21.855-14.707,35.265c0,4.65,0.656,9.147,1.856,13.419h-67.491v-141.2c0-20.74-16.872-37.612-37.612-37.612
	H113.46c-20.74,0-37.612,16.873-37.612,37.612v141.2H8.178c-4.516,0-8.178,3.66-8.178,8.178v51.42c0,4.517,3.661,8.178,8.178,8.178
	h9.132v166.927c0,4.517,3.661,8.178,8.178,8.178h14.567v62.821c0,4.517,3.661,8.178,8.178,8.178h42.806
	c4.516,0,8.178-3.66,8.178-8.178v-62.821h313.568v62.821c0,4.517,3.661,8.178,8.178,8.178h42.807c4.516,0,8.178-3.66,8.178-8.178
	v-62.821h14.566c4.517,0,8.178-3.66,8.178-8.178V256.242h9.133c4.516,0,8.178-3.66,8.178-8.178v-51.42
	C512,192.127,508.339,188.467,503.822,188.467z M374.79,110.017c1.052-0.183,2.124-0.275,3.207-0.275
	c4.955,0,9.611,1.929,13.114,5.431c4.327,4.327,6.185,10.435,5.157,16.315c-0.11,0.02-0.222,0.031-0.334,0.047
	c-0.31,0.048-0.622,0.088-0.934,0.121c-0.236,0.024-0.472,0.044-0.709,0.059c-0.189,0.012-0.377,0.017-0.566,0.024
	c-0.443,0.014-0.886,0.012-1.331-0.004c-0.208-0.008-0.418-0.016-0.626-0.031c-1.018-0.072-2.034-0.225-3.029-0.461
	c-0.049-0.012-0.097-0.024-0.146-0.037c-0.324-0.08-0.646-0.166-0.965-0.263c-0.058-0.017-0.118-0.027-0.177-0.045
	c-2.8-0.885-5.369-2.427-7.506-4.563C375.62,122.01,373.762,115.898,374.79,110.017z M386.615,147.524
	c2.105,0.391,4.26,0.599,6.447,0.599h0.001c4.404,0,8.709-0.814,12.794-2.422c0.409-0.16,0.794-0.361,1.166-0.581
	c0.059-0.035,0.119-0.068,0.177-0.104c0.351-0.219,0.683-0.466,0.995-0.735c0.057-0.049,0.11-0.099,0.166-0.149
	c0.312-0.283,0.606-0.584,0.871-0.913c0.017-0.021,0.031-0.044,0.047-0.064c0.253-0.321,0.478-0.662,0.681-1.019
	c0.022-0.038,0.051-0.07,0.072-0.108c16.207,2.253,28.724,16.202,28.724,33.019c0,6.87-2.09,13.26-5.665,18.571
	c-0.015,0.023-0.029,0.046-0.045,0.069c-4.997,7.383-12.875,12.657-22.004,14.215c-0.281,0.047-0.562,0.096-0.845,0.136
	c-0.303,0.044-0.609,0.082-0.915,0.117c-0.394,0.046-0.791,0.083-1.187,0.113c-0.237,0.02-0.474,0.04-0.712,0.055
	c-0.651,0.038-1.305,0.063-1.964,0.063s-1.313-0.025-1.964-0.063c-0.239-0.014-0.475-0.035-0.712-0.055
	c-0.398-0.031-0.794-0.069-1.188-0.113c-0.305-0.036-0.611-0.073-0.913-0.117c-0.285-0.04-0.567-0.089-0.848-0.136
	c-9.127-1.558-17.004-6.831-22.001-14.213c-0.017-0.025-0.033-0.051-0.05-0.076c-3.573-5.31-5.661-11.697-5.661-18.564
	C372.08,163.995,377.58,153.707,386.615,147.524z M92.204,47.267c0-11.721,9.535-21.256,21.256-21.256h139.017
	c11.721,0,21.256,9.535,21.256,21.256v141.2H92.204V47.267z M82.862,485.99H56.41v-54.643H82.86v54.643H82.862z M455.591,485.99
	h-26.452v-54.643h26.452V485.99z M478.334,414.991h-14.566h-42.807H91.039H48.232H33.665V256.242h444.668v158.749H478.334z
	 M495.645,239.887h-9.133H25.487h-9.132v-35.065h67.671h197.885h83.711c7.301,9.792,17.771,16.408,29.556,18.853
	c0.152,0.032,0.303,0.063,0.455,0.094c0.617,0.122,1.236,0.234,1.86,0.334c0.334,0.053,0.669,0.099,1.005,0.147
	c0.504,0.069,1.009,0.138,1.517,0.193c0.506,0.055,1.017,0.094,1.528,0.133c0.375,0.028,0.749,0.065,1.126,0.086
	c0.909,0.05,1.825,0.08,2.749,0.08s1.838-0.029,2.749-0.08c0.377-0.021,0.751-0.057,1.127-0.086c0.51-0.04,1.021-0.079,1.525-0.133
	c0.509-0.055,1.014-0.124,1.52-0.194c0.335-0.047,0.669-0.093,1.001-0.146c0.626-0.099,1.246-0.212,1.864-0.334
	c0.15-0.031,0.3-0.061,0.449-0.093c11.788-2.445,22.259-9.061,29.56-18.854h50.431L495.645,239.887L495.645,239.887z"/>
<g>
</g>
<g>
</g>
<g>
</g>
<g>
</g>
<g>
</g>
<g>
</g>
<g>
</g>
<g>
</g>
<g>
</g>
<g>
</g>
<g>
</g>
<g>
</g>
<g>
</g>
<g>
</g>
<g>
</g>
</svg>
