<?xml version="1.0" encoding="iso-8859-1"?>
<!-- Generator: Adobe Illustrator 19.0.0, SVG Export Plug-In . SVG Version: 6.00 Build 0)  -->
<svg version="1.1" id="Layer_1" xmlns="http://www.w3.org/2000/svg" xmlns:xlink="http://www.w3.org/1999/xlink" x="0px" y="0px"
	 viewBox="0 0 512 512" style="enable-background:new 0 0 512 512;" xml:space="preserve">
<path style="fill:#FFCA66;" d="M437.621,8.574H141.282v494.853h282.434V178.271l30.724-26.611c5.635-4.88,8.872-11.966,8.872-19.42
	V34.265C463.312,20.076,451.809,8.574,437.621,8.574z"/>
<polygon style="opacity:0.15;fill:#333333;enable-background:new    ;" points="355.452,135.467 355.452,6.923 68.86,6.923 
	68.86,501.776 402.321,501.776 402.321,169.762 "/>
<polygon style="fill:#FFEECC;" points="331.121,143.977 331.121,8.574 48.687,8.574 48.687,503.426 382.148,503.426 
	382.148,178.271 "/>
<path style="fill:#26150C;" d="M437.621,0h-106.5H48.687c-4.735,0-8.574,3.838-8.574,8.574v494.853c0,4.736,3.839,8.574,8.574,8.574
	H382.15h41.567c4.735,0,8.574-3.838,8.574-8.574V189.84c0-4.863,2.109-9.479,5.784-12.663l21.979-19.037
	c7.52-6.511,11.833-15.953,11.833-25.9V34.265C471.885,15.371,456.515,0,437.621,0z M373.575,494.853H57.261V17.147h265.286V126.35
	v0.001c0,7.421,1.98,14.556,5.567,20.782c0.437,0.759,0.897,1.503,1.381,2.233c2.986,4.501,6.847,8.45,11.473,11.558l25.199,16.936
	c4.639,3.118,7.408,8.314,7.408,13.903L373.575,494.853L373.575,494.853z M454.738,132.24c0,4.97-2.155,9.686-5.911,12.939
	l-21.98,19.037c-7.438,6.443-11.705,15.783-11.705,25.624v305.012h-24.42V191.764c0-3.533-0.548-6.99-1.587-10.265
	c-2.285-7.205-6.95-13.533-13.403-17.868l-25.201-16.938c-6.787-4.559-10.837-12.164-10.837-20.341V17.147h97.926
	c9.439,0,17.117,7.679,17.117,17.117L454.738,132.24L454.738,132.24z"/>
<g>
</g>
<g>
</g>
<g>
</g>
<g>
</g>
<g>
</g>
<g>
</g>
<g>
</g>
<g>
</g>
<g>
</g>
<g>
</g>
<g>
</g>
<g>
</g>
<g>
</g>
<g>
</g>
<g>
</g>
</svg>
