<?xml version="1.0" encoding="iso-8859-1"?>
<!-- Generator: Adobe Illustrator 19.0.0, SVG Export Plug-In . SVG Version: 6.00 Build 0)  -->
<svg version="1.1" id="Layer_1" xmlns="http://www.w3.org/2000/svg" xmlns:xlink="http://www.w3.org/1999/xlink" x="0px" y="0px"
	 viewBox="0 0 511.998 511.998" style="enable-background:new 0 0 511.998 511.998;" xml:space="preserve">
<polygon style="fill:#FF99AA;" points="217.637,204.592 335.455,503.918 386.127,408.375 488.329,443.745 370.51,144.42 "/>
<polygon style="fill:#FF8095;" points="294.359,204.592 176.54,503.918 125.869,408.375 23.668,443.745 141.486,144.42 "/>
<path style="opacity:0.15;fill:#333333;enable-background:new    ;" d="M409.401,243.228L370.51,144.42l-114.512,45.074
	L141.486,144.42l-38.892,98.808c27.548,51.025,79.81,86.822,140.641,91.248l12.763-32.424l12.763,32.424
	C329.592,330.049,381.853,294.252,409.401,243.228z"/>
<circle style="fill:#FFCA66;" cx="255.994" cy="160.736" r="152.654"/>
<g>
	<path style="fill:#FFFFFF;" d="M377.215,201.755c-0.766,0-1.545-0.11-2.316-0.339c-4.277-1.277-6.709-5.78-5.431-10.057
		c11.318-37.901-1.327-84.848-30.751-114.168c-3.163-3.151-3.17-8.268-0.021-11.43c3.149-3.162,8.266-3.171,11.429-0.02
		c33.983,33.864,47.98,86.205,34.829,130.243C383.91,199.49,380.695,201.755,377.215,201.755z"/>
	<path style="fill:#FFFFFF;" d="M311.037,55.809c-1.191,0-2.402-0.265-3.544-0.823c-15.896-7.773-33.701-11.882-51.496-11.882
		c-4.463,0-8.082-3.619-8.082-8.082s3.618-8.082,8.082-8.082c20.241,0,40.503,4.677,58.596,13.525
		c4.01,1.961,5.671,6.802,3.709,10.811C316.902,54.143,314.027,55.809,311.037,55.809z"/>
</g>
<path style="fill:#FFEECC;" d="M255.998,259.512c-54.464,0-98.774-44.31-98.774-98.775s44.31-98.776,98.774-98.776
	s98.774,44.31,98.774,98.775S310.462,259.512,255.998,259.512z"/>
<path style="opacity:0.1;fill:#293133;enable-background:new    ;" d="M192.784,160.738c0-48.395,34.987-88.77,80.994-97.168
	c-5.77-1.053-11.711-1.607-17.781-1.607c-54.464,0-98.775,44.31-98.775,98.774s44.31,98.775,98.775,98.775
	c6.069,0,12.011-0.554,17.781-1.607C227.771,249.508,192.784,209.133,192.784,160.738z"/>
<g>
	<path style="fill:#26150C;" d="M362.855,160.737c0-58.921-47.935-106.857-106.857-106.857s-106.857,47.935-106.857,106.857
		s47.935,106.857,106.857,106.857S362.855,219.658,362.855,160.737z M255.998,251.429c-50.008,0-90.692-40.685-90.692-90.692
		s40.685-90.692,90.692-90.692s90.692,40.685,90.692,90.692S306.006,251.429,255.998,251.429z"/>
	<path style="fill:#26150C;" d="M495.849,440.784l-88.701-225.351c6.201-17.081,9.587-35.5,9.587-54.696
		C416.736,72.106,344.629,0,255.998,0C167.368,0,95.261,72.106,95.261,160.737c0,19.196,3.388,37.615,9.587,54.696l-88.7,225.351
		c-1.156,2.936-0.497,6.277,1.688,8.554c2.184,2.278,5.495,3.076,8.476,2.043l95.66-33.106l47.429,89.427
		c1.407,2.653,4.161,4.295,7.139,4.295c0.152,0,0.304-0.004,0.457-0.013c3.151-0.178,5.91-2.174,7.066-5.109L256,324.115
		l71.937,182.761c1.156,2.936,3.915,4.931,7.066,5.109c0.153,0.009,0.305,0.013,0.457,0.013c2.978,0,5.732-1.642,7.139-4.295
		l47.43-89.427l95.66,33.106c2.98,1.03,6.292,0.234,8.476-2.043C496.349,447.061,497.004,443.721,495.849,440.784z M175.453,484.617
		l-42.444-80.028c-1.435-2.706-4.22-4.296-7.141-4.296c-0.879,0-1.772,0.144-2.642,0.445l-85.605,29.627
		c0,0,76.416-194.139,76.418-194.145c-0.322,0.818,2.833,5.121,3.328,5.966c1.193,2.037,2.431,4.046,3.712,6.028
		c2.546,3.938,5.266,7.764,8.148,11.464c5.712,7.333,12.064,14.167,18.959,20.4c13.741,12.418,29.636,22.417,46.78,29.425
		c14.314,5.851,29.508,9.624,44.894,11.164c0.04,0.004,0.079,0.01,0.119,0.014L175.453,484.617z M270.961,304.509
		c-74.615,7.66-144.663-45.109-157.433-119.119c-1.404-8.138-2.102-16.395-2.102-24.652
		C111.425,81.02,176.281,16.164,255.998,16.164c79.718,0,144.574,64.856,144.574,144.573c0,72.766-56.616,135.973-129.026,143.711
		C271.35,304.468,271.155,304.488,270.961,304.509z M388.771,400.737c-3.764-1.302-7.916,0.331-9.784,3.851l-42.444,80.028
		l-64.526-163.936c0.04-0.004,0.079-0.01,0.119-0.014c20.029-2.007,39.655-7.787,57.556-16.996
		c16.51-8.494,31.509-19.871,44.137-33.482c4.709-5.076,9.089-10.457,13.102-16.098c2.023-2.844,3.953-5.753,5.787-8.723
		c0.62-1.004,5.763-8.365,5.243-9.148l76.417,194.145L388.771,400.737z"/>
</g>
<g>
</g>
<g>
</g>
<g>
</g>
<g>
</g>
<g>
</g>
<g>
</g>
<g>
</g>
<g>
</g>
<g>
</g>
<g>
</g>
<g>
</g>
<g>
</g>
<g>
</g>
<g>
</g>
<g>
</g>
</svg>
