<?xml version="1.0" encoding="iso-8859-1"?>
<!-- Generator: Adobe Illustrator 19.0.0, SVG Export Plug-In . SVG Version: 6.00 Build 0)  -->
<svg version="1.1" id="Layer_1" xmlns="http://www.w3.org/2000/svg" xmlns:xlink="http://www.w3.org/1999/xlink" x="0px" y="0px"
	 viewBox="0 0 512 512" style="enable-background:new 0 0 512 512;" xml:space="preserve">
<rect x="73.607" y="84.129" style="fill:#877C67;" width="364.8" height="419.945"/>
<rect x="117.479" y="125.77" style="fill:#FFF9F2;" width="277.045" height="343.863"/>
<path style="opacity:0.15;fill:#333333;enable-background:new    ;" d="M148.128,84.129v24.375
	c0,35.153,28.599,63.752,63.752,63.752h88.239c35.153,0,63.752-28.599,63.752-63.752V84.129H148.128z"/>
<path style="fill:#85A1A6;" d="M169.276,53.77v54.732c0,23.53,19.074,42.604,42.604,42.604h88.239
	c23.53,0,42.604-19.074,42.604-42.604V53.77H169.276z"/>
<path style="fill:#CCF7FF;" d="M255.999,7.931L255.999,7.931c-25.868,0-46.837,20.97-46.837,46.837v44.841h93.675V54.768
	C302.837,28.9,281.867,7.931,255.999,7.931z"/>
<circle style="fill:#293133;" cx="256.002" cy="32.251" r="8.992"/>
<g>
	<circle style="fill:#26150C;" cx="256.002" cy="32.251" r="8.992"/>
	<path style="fill:#26150C;" d="M174.37,200.161h163.259c4.38,0,7.931-3.551,7.931-7.931c0-4.38-3.551-7.931-7.931-7.931H174.37
		c-4.38,0-7.931,3.551-7.931,7.931C166.439,196.61,169.99,200.161,174.37,200.161z"/>
	<path style="fill:#26150C;" d="M174.37,237.169h163.259c4.38,0,7.931-3.551,7.931-7.931s-3.551-7.931-7.931-7.931H174.37
		c-4.38,0-7.931,3.551-7.931,7.931S169.99,237.169,174.37,237.169z"/>
	<path style="fill:#26150C;" d="M174.37,274.178h163.259c4.38,0,7.931-3.551,7.931-7.931c0-4.38-3.551-7.931-7.931-7.931H174.37
		c-4.38,0-7.931,3.551-7.931,7.931C166.439,270.627,169.99,274.178,174.37,274.178z"/>
	<path style="fill:#26150C;" d="M174.37,311.187h163.259c4.38,0,7.931-3.551,7.931-7.931s-3.551-7.931-7.931-7.931H174.37
		c-4.38,0-7.931,3.551-7.931,7.931S169.99,311.187,174.37,311.187z"/>
	<path style="fill:#26150C;" d="M174.37,348.196h163.259c4.38,0,7.931-3.551,7.931-7.931s-3.551-7.931-7.931-7.931H174.37
		c-4.38,0-7.931,3.551-7.931,7.931S169.99,348.196,174.37,348.196z"/>
	<path style="fill:#26150C;" d="M337.628,415.261h-59.631c-4.38,0-7.931,3.551-7.931,7.931s3.551,7.931,7.931,7.931h59.631
		c4.38,0,7.931-3.551,7.931-7.931S342.008,415.261,337.628,415.261z"/>
	<path style="fill:#26150C;" d="M438.398,76.198h-87.745V53.77c0-4.38-3.551-7.931-7.931-7.931h-32.694
		C305.75,19.873,283.157,0,255.999,0s-49.751,19.873-54.028,45.839h-32.694c-4.38,0-7.931,3.551-7.931,7.931v22.428H73.601
		c-4.38,0-7.931,3.551-7.931,7.931v419.941c0,4.38,3.551,7.931,7.931,7.931h364.797c4.38,0,7.931-3.551,7.931-7.931V84.129
		C446.328,79.748,442.777,76.198,438.398,76.198z M217.093,54.768c0-0.105,0.007-0.208,0.008-0.313c0-0.011,0-0.021,0.001-0.032
		l0.015-0.484c0-0.014-0.001-0.027-0.001-0.041c0.464-21.051,17.721-38.037,38.884-38.037c21.162,0,38.419,16.985,38.885,38.038
		c0,0.014-0.001,0.027-0.001,0.041l0.015,0.484c0,0.011,0,0.021,0.001,0.032c0.001,0.105,0.008,0.207,0.008,0.313v36.909h-77.814
		v-36.91H217.093z M177.207,84.129V61.701h24.024v37.909c0,4.38,3.551,7.931,7.931,7.931h93.675c4.38,0,7.931-3.551,7.931-7.931
		V61.701h24.024v22.428v24.375c0,13.349-8.074,26.286-20.513,31.444c-7.896,3.274-16.702,3.323-25.25,3.323
		c-22.093,0.001-44.187,0.002-66.279,0.002c-8.435,0-17.122-0.047-24.922-3.255c-12.508-5.145-20.62-18.106-20.62-31.515V84.129
		H177.207z M168.076,133.698c7.794,10.345,14.346,18.352,27.414,22.262c10.933,3.272,22.537,3.293,33.949,3.286
		c18.451-0.01,36.903-0.019,55.354-0.029c11.642-0.006,23.588-0.066,34.461-4.224c10.499-4.016,19.024-11.677,24.684-21.317
		c14.177,0.314,28.45,0.019,42.653,0.019v328.003H125.408V133.696C139.612,133.696,153.88,133.967,168.076,133.698z
		 M430.467,496.139H81.531V92.059h79.814v16.444c0,3.189,0.311,6.305,0.879,9.333h-44.747c-4.38,0-7.931,3.551-7.931,7.931v343.864
		c0,4.38,3.551,7.931,7.931,7.931h277.045c4.38,0,7.931-3.551,7.931-7.931V125.766c0-4.38-3.551-7.931-7.931-7.931h-44.748
		c0.568-3.026,0.879-6.144,0.879-9.333V92.059h79.814V496.139z"/>
</g>
<g>
</g>
<g>
</g>
<g>
</g>
<g>
</g>
<g>
</g>
<g>
</g>
<g>
</g>
<g>
</g>
<g>
</g>
<g>
</g>
<g>
</g>
<g>
</g>
<g>
</g>
<g>
</g>
<g>
</g>
</svg>
