<?xml version="1.0" encoding="iso-8859-1"?>
<!-- Generator: Adobe Illustrator 19.0.0, SVG Export Plug-In . SVG Version: 6.00 Build 0)  -->
<svg version="1.1" id="Layer_1" xmlns="http://www.w3.org/2000/svg" xmlns:xlink="http://www.w3.org/1999/xlink" x="0px" y="0px"
	 viewBox="0 0 511.999 511.999" style="enable-background:new 0 0 511.999 511.999;" xml:space="preserve">
<path style="fill:#FF734D;" d="M112.208,65.133c-1.943-6.565-11.241-6.565-13.184,0l-21.552,88.336h56.288L112.208,65.133z"/>
<rect x="62.379" y="138.976" style="fill:#FF8766;" width="86.471" height="42.757"/>
<path style="fill:#CCF7FF;" d="M156.676,169.767H54.556c-25.837,0-46.782,20.945-46.782,46.782v188.458
	c0,25.837,20.945,46.782,46.782,46.782h102.12c25.837,0,46.782-20.945,46.782-46.782V216.549
	C203.458,190.713,182.512,169.767,156.676,169.767z"/>
<g>
	<rect x="62.384" y="155.007" style="opacity:0.15;fill:#333333;enable-background:new    ;" width="86.471" height="14.883"/>
	<path style="opacity:0.1;fill:#333333;enable-background:new    ;" d="M29.749,405.006V216.549
		c0-25.837,20.945-46.782,46.782-46.782H54.561c-25.837,0-46.782,20.945-46.782,46.782v188.458
		c0,25.837,20.945,46.782,46.782,46.782h21.971C50.694,451.788,29.749,430.844,29.749,405.006z"/>
</g>
<path style="fill:#FF734D;" d="M152.207,222.607H59.025c-7.368,0-13.342,5.973-13.342,13.342v149.66
	c0,7.368,5.973,13.342,13.342,13.342h93.181c7.368,0,13.342-5.973,13.342-13.342V235.948
	C165.548,228.58,159.575,222.607,152.207,222.607z"/>
<path style="fill:#CCF7FF;" d="M413.083,91.112L413.083,91.112L253.727,307.046l35.82-1.212l14.222,38.143l122.427-165.892
	C446.592,150.447,440.721,111.508,413.083,91.112z"/>
<path style="opacity:0.15;fill:#333333;enable-background:new    ;" d="M305.495,268.978c-5.785-3.263-11.888-5.711-18.262-7.336
	l-33.507,45.404l35.82-1.212l14.222,38.143l32.066-43.45C328.799,287.117,318.503,276.314,305.495,268.978z"/>
<path style="fill:#4DA3FF;" d="M295.311,287.035c-33.34-18.803-80.276,1.255-104.836,44.801s-17.441,94.09,15.899,112.893
	c33.34,18.803,80.276-1.255,104.836-44.801C335.77,356.383,328.651,305.839,295.311,287.035z M279.609,382.107
	c-7.868,13.951-19.451,24.974-31.781,30.243c-5.314,2.271-15.452,5.393-23.631,0.78c-8.179-4.613-10.752-14.903-11.559-20.627
	c-1.87-13.277,1.57-28.892,9.438-42.843c7.868-13.951,19.451-24.974,31.782-30.244c5.314-2.271,15.452-5.393,23.631-0.78
	c8.178,4.613,10.752,14.903,11.558,20.626C290.917,352.54,287.477,368.157,279.609,382.107z"/>
<path style="fill:#8FADB3;" d="M266.994,91.112L266.994,91.112l159.357,215.934l-35.821-1.212l-14.222,38.143L253.882,178.085
	C233.484,150.447,239.356,111.508,266.994,91.112z"/>
<path style="opacity:0.15;fill:#333333;enable-background:new    ;" d="M376.307,343.977l14.222-38.143l35.821,1.212l-33.507-45.404
	c-6.373,1.625-12.476,4.073-18.263,7.336c-13.008,7.336-23.304,18.138-30.339,31.548L376.307,343.977z"/>
<path style="fill:#4DA3FF;" d="M489.601,331.837c-24.559-43.546-71.495-63.604-104.836-44.801
	c-33.34,18.803-40.459,69.347-15.899,112.893s71.495,63.604,104.836,44.801C507.042,425.927,514.16,375.383,489.601,331.837z
	 M467.438,392.502c-0.807,5.724-3.38,16.014-11.559,20.627c-8.179,4.613-18.317,1.49-23.631-0.78
	c-12.33-5.269-23.913-16.292-31.781-30.243c-7.868-13.951-11.308-29.566-9.438-42.844c0.806-5.723,3.38-16.013,11.558-20.626
	c8.179-4.613,18.317-1.49,23.631,0.78c12.331,5.27,23.914,16.293,31.782,30.244C465.868,363.61,469.308,379.226,467.438,392.502z"/>
<g>
	<circle style="fill:#26150C;" cx="340.037" cy="242.424" r="12.169"/>
	<path style="fill:#26150C;" d="M281.308,311.866c-3.979-2.244-8.537-3.382-13.545-3.382c-6.696,0-12.92,2.057-16.961,3.783
		c-13.869,5.928-26.808,18.165-35.497,33.572c-8.69,15.409-12.468,32.812-10.365,47.748c1.007,7.143,4.352,20.059,15.438,26.312
		c3.979,2.244,8.537,3.382,13.545,3.382c6.697,0,12.92-2.057,16.96-3.784c13.869-5.927,26.807-18.164,35.497-33.572
		c8.691-15.409,12.468-32.812,10.365-47.747C295.74,331.035,292.396,318.118,281.308,311.866z M272.838,378.288
		c-7.045,12.493-17.275,22.302-28.063,26.914c-3.824,1.634-7.678,2.532-10.851,2.532c-2.299,0-4.287-0.462-5.906-1.376
		c-5.465-3.083-7.192-11.475-7.68-14.94c-1.636-11.619,1.466-25.448,8.511-37.94c7.045-12.492,17.275-22.301,28.064-26.913
		c3.825-1.635,7.679-2.533,10.852-2.533c2.299,0,4.287,0.462,5.908,1.377c5.465,3.082,7.191,11.473,7.679,14.938
		C282.986,351.967,279.883,365.796,272.838,378.288z"/>
	<path style="fill:#26150C;" d="M496.372,328.018c-19.123-33.906-52.123-55.815-84.073-55.815c-0.662,0-1.321,0.011-1.978,0.03
		l-21.972-29.773l44.101-59.759c11.098-15.037,15.675-33.497,12.89-51.976c-2.786-18.482-12.603-34.77-27.64-45.868
		c-3.454-2.55-8.322-1.818-10.872,1.639l-66.789,90.502l-66.789-90.502c-1.225-1.659-3.057-2.764-5.096-3.071
		c-2.041-0.31-4.117,0.207-5.776,1.432c-15.037,11.098-24.854,27.386-27.639,45.868c-2.786,18.481,1.791,36.939,12.889,51.976
		l44.101,59.759l-21.972,29.773c-0.657-0.019-1.316-0.03-1.978-0.03c-19.604,0-39.599,8.259-56.545,22.467V216.55
		c0-30.083-24.474-54.557-54.556-54.557h-0.048v-23.019c0-4.294-3.481-7.774-7.774-7.774H136.33l-16.567-67.907
		c-0.03-0.122-0.063-0.243-0.098-0.365c-1.857-6.275-7.503-10.492-14.046-10.492c-6.544,0-12.189,4.216-14.046,10.492
		c-0.036,0.12-0.068,0.242-0.098,0.365l-16.567,67.907H62.378c-4.294,0-7.774,3.481-7.774,7.774v23.019h-0.048
		C24.474,161.992,0,186.467,0,216.55v188.458c0,30.082,24.474,54.556,54.556,54.556h102.118c13.797,0,26.816-5.144,36.808-14.314
		c2.82,2.331,5.842,4.43,9.072,6.252c9.484,5.348,20.033,8.061,31.353,8.061c31.948,0,64.951-21.911,84.073-55.814
		c15.5-27.483,19.089-57.726,12.098-82.332l9.958-13.494l9.958,13.494c-6.991,24.606-3.402,54.85,12.098,82.332
		c19.121,33.903,52.122,55.81,84.073,55.814c0.003,0,0.005,0,0.005,0c11.318,0,21.864-2.713,31.349-8.06
		c18.282-10.31,30.194-29.081,33.541-52.855C514.302,375.641,509.085,350.559,496.372,328.018z M414.397,102.424
		c8.345,8.206,13.791,18.84,15.568,30.619c2.167,14.373-1.394,28.731-10.025,40.427l-41.253,55.898l-28.986-39.278L414.397,102.424z
		 M105.616,70.912l14.708,60.286H90.908L105.616,70.912z M70.153,146.748h10.856h49.214h10.856v15.245H70.153V146.748z
		 M156.676,444.014H54.556c-21.509,0-39.008-17.498-39.008-39.008V216.55c0-21.509,17.498-39.009,39.008-39.009h7.822h86.474h7.822
		c21.509,0,39.008,17.499,39.008,39.009v93.876c-0.395,0.486-0.77,0.994-1.159,1.487c-0.457,0.578-0.912,1.158-1.361,1.747
		c-0.428,0.563-0.854,1.128-1.274,1.699c-0.778,1.059-1.546,2.13-2.295,3.221c-0.219,0.32-0.433,0.643-0.65,0.964
		c-0.726,1.078-1.436,2.171-2.133,3.279c-0.235,0.374-0.469,0.748-0.701,1.126c-0.823,1.338-1.632,2.691-2.41,4.069
		c-0.725,1.286-1.419,2.581-2.093,3.88c-0.241,0.466-0.471,0.933-0.707,1.4c-0.416,0.825-0.825,1.651-1.219,2.479
		c-0.282,0.59-0.556,1.182-0.828,1.775c-0.315,0.687-0.62,1.376-0.921,2.066c-0.299,0.682-0.596,1.366-0.881,2.052
		c-0.21,0.507-0.407,1.015-0.61,1.523c-1.223,3.057-2.314,6.137-3.273,9.236c-0.032,0.104-0.066,0.208-0.098,0.313
		c-0.349,1.137-0.677,2.277-0.99,3.419c-0.013,0.049-0.027,0.098-0.039,0.147c-1.603,5.885-2.725,11.808-3.352,17.706
		c-0.005,0.048-0.01,0.096-0.015,0.142c-0.332,3.156-0.521,6.304-0.567,9.434c-0.006,0.405-0.019,0.811-0.021,1.215
		c-0.002,0.68,0.011,1.358,0.022,2.036c0.012,0.735,0.03,1.466,0.058,2.196c0.021,0.524,0.043,1.048,0.071,1.571
		c0.057,1.062,0.134,2.118,0.225,3.168c0.02,0.226,0.033,0.455,0.055,0.68c0.133,1.406,0.297,2.801,0.491,4.185l0.001,0.005
		c0.001,0.006,0.002,0.012,0.003,0.019c0.189,1.347,0.415,2.68,0.662,4.004c0.051,0.274,0.105,0.548,0.158,0.82
		c0.209,1.062,0.437,2.116,0.684,3.161c0.075,0.323,0.147,0.65,0.226,0.972c0.297,1.193,0.611,2.377,0.957,3.545
		c0.195,0.664,0.414,1.311,0.624,1.965c0.151,0.465,0.296,0.931,0.454,1.393c0.286,0.836,0.589,1.658,0.899,2.476
		c0.071,0.187,0.144,0.374,0.217,0.561c2.328,5.992,5.312,11.486,8.924,16.386C175.699,440.404,166.455,444.014,156.676,444.014z
		 M304.439,396.109c-16.412,29.101-44.097,47.905-70.53,47.905c-8.611,0-16.59-2.038-23.715-6.056
		c-4.192-2.363-7.94-5.356-11.22-8.881c-0.03-0.033-0.055-0.068-0.085-0.101c-7.988-8.648-13.093-20.682-14.696-34.37
		c-0.034-0.292-0.071-0.584-0.102-0.877c-0.08-0.757-0.147-1.52-0.205-2.287c-0.024-0.315-0.046-0.629-0.066-0.944
		c-0.053-0.826-0.1-1.653-0.129-2.489c-0.003-0.098-0.004-0.196-0.007-0.293c-0.419-13.852,2.644-28.577,8.728-42.392
		c0.072-0.164,0.147-0.327,0.22-0.491c0.385-0.862,0.781-1.721,1.191-2.576c0.232-0.482,0.471-0.961,0.71-1.44
		c0.298-0.602,0.593-1.203,0.904-1.801c0.586-1.125,1.185-2.245,1.813-3.357c0.797-1.413,1.632-2.801,2.487-4.174
		c0.136-0.219,0.271-0.441,0.409-0.659c0.829-1.311,1.685-2.6,2.564-3.87c0.156-0.225,0.314-0.45,0.472-0.674
		c0.907-1.29,1.835-2.559,2.792-3.801c0.086-0.112,0.174-0.221,0.262-0.333c1.019-1.312,2.061-2.599,3.133-3.853
		c0.011-0.012,0.019-0.025,0.029-0.037c16.219-18.975,37.684-30.507,58.382-30.507c1.666,0,3.3,0.1,4.917,0.252
		c0.017,0.001,0.034,0.006,0.051,0.009c4.031,0.385,7.894,1.243,11.561,2.542c0.311,0.112,0.624,0.222,0.933,0.339
		c0.469,0.178,0.933,0.364,1.396,0.556c0.471,0.197,0.937,0.404,1.401,0.617c0.341,0.156,0.685,0.308,1.023,0.473
		c0.809,0.394,1.611,0.807,2.399,1.25c0.012,0.006,0.023,0.012,0.034,0.018c0.008,0.004,0.016,0.01,0.023,0.014
		c0.805,0.455,1.586,0.94,2.356,1.437c0.253,0.164,0.502,0.332,0.751,0.5c0.539,0.364,1.067,0.74,1.588,1.124
		c0.256,0.19,0.518,0.374,0.771,0.57c0.658,0.506,1.3,1.03,1.928,1.569c0.352,0.303,0.693,0.62,1.036,0.933
		c0.296,0.27,0.59,0.541,0.878,0.818c0.4,0.385,0.795,0.774,1.182,1.174c0.154,0.158,0.304,0.323,0.456,0.485
		c5.092,5.404,9.079,12.128,11.752,19.942c0.071,0.208,0.167,0.404,0.254,0.604C321.435,343.989,318.459,371.253,304.439,396.109z
		 M323.203,304.549c-4.522-7.971-10.403-14.697-17.441-19.955c-0.024-0.018-0.049-0.036-0.073-0.053
		c-1.016-0.757-2.053-1.486-3.116-2.18c-0.063-0.041-0.126-0.08-0.189-0.12c-1.062-0.689-2.144-1.351-3.253-1.976
		c-0.006-0.003-0.014-0.007-0.02-0.011c-0.876-0.493-1.763-0.957-2.657-1.405c-0.14-0.07-0.28-0.142-0.421-0.212
		c-2.919-1.438-5.932-2.635-9.03-3.592l14.386-19.493l28.986,39.278L323.203,304.549z M315.981,249.139l-8.336-11.295l0,0
		l-47.508-64.375c-8.632-11.696-12.191-26.053-10.025-40.427c1.776-11.779,7.223-22.413,15.568-30.619l127.392,172.621
		c-3.099,0.958-6.113,2.156-9.033,3.594c-0.138,0.068-0.275,0.138-0.414,0.207c-0.895,0.45-1.784,0.913-2.661,1.408
		c-0.006,0.003-0.013,0.007-0.02,0.011c-1.11,0.625-2.192,1.288-3.255,1.978c-0.062,0.039-0.124,0.078-0.186,0.117
		c-1.065,0.696-2.104,1.427-3.121,2.184c-0.022,0.017-0.045,0.033-0.067,0.049c-7.039,5.258-12.92,11.986-17.443,19.957
		L315.981,249.139z M495.665,396.478c-2.658,18.871-11.814,33.603-25.782,41.48c-7.126,4.017-15.101,6.055-23.709,6.055
		c0,0-0.004,0-0.005,0c-26.436-0.003-54.12-18.806-70.531-47.905c-14.019-24.857-16.997-52.12-10.03-73.133
		c0.088-0.201,0.184-0.397,0.255-0.606c2.67-7.806,6.653-14.525,11.739-19.927c0.158-0.168,0.315-0.339,0.475-0.505
		c0.384-0.395,0.776-0.781,1.172-1.163c0.293-0.282,0.592-0.557,0.893-0.831c0.339-0.31,0.677-0.624,1.025-0.924
		c0.629-0.54,1.274-1.066,1.933-1.573c0.25-0.194,0.508-0.375,0.762-0.563c0.524-0.386,1.055-0.763,1.596-1.129
		c0.248-0.167,0.495-0.334,0.746-0.496c0.771-0.498,1.552-0.983,2.358-1.438c0.008-0.004,0.016-0.01,0.023-0.014
		c0.011-0.006,0.023-0.012,0.034-0.018c0.789-0.443,1.59-0.856,2.399-1.25c0.337-0.165,0.68-0.317,1.023-0.473
		c0.464-0.213,0.93-0.42,1.401-0.617c0.462-0.192,0.927-0.38,1.396-0.556c0.309-0.118,0.622-0.229,0.933-0.339
		c3.668-1.298,7.53-2.156,11.561-2.542c0.017-0.001,0.034-0.006,0.051-0.009c1.617-0.152,3.251-0.252,4.917-0.252
		c26.434,0,54.117,18.804,70.53,47.906C493.872,355.237,498.431,376.838,495.665,396.478z"/>
	<path style="fill:#26150C;" d="M429.273,312.267c-4.041-1.726-10.263-3.783-16.96-3.783c-5.009,0-9.566,1.137-13.545,3.381
		c-11.088,6.253-14.431,19.171-15.438,26.314c-2.103,14.935,1.674,32.338,10.365,47.747c8.69,15.409,21.628,27.645,35.498,33.573
		c4.041,1.726,10.263,3.782,16.959,3.782c5.009,0,9.566-1.138,13.545-3.382c11.087-6.252,14.431-19.169,15.439-26.313
		c2.103-14.935-1.674-32.338-10.365-47.747C456.081,330.432,443.143,318.195,429.273,312.267z M459.74,391.418
		c-0.488,3.465-2.214,11.857-7.68,14.941c-1.619,0.913-3.607,1.376-5.906,1.376c-3.173,0-7.027-0.899-10.851-2.532
		c-10.79-4.611-21.018-14.421-28.064-26.914c-7.045-12.491-10.148-26.321-8.512-37.94c0.488-3.465,2.213-11.857,7.679-14.939
		c1.619-0.913,3.607-1.376,5.906-1.376c3.173,0,7.027,0.899,10.85,2.532c10.791,4.612,21.02,14.421,28.065,26.914
		S461.376,379.8,459.74,391.418z"/>
</g>
<g>
</g>
<g>
</g>
<g>
</g>
<g>
</g>
<g>
</g>
<g>
</g>
<g>
</g>
<g>
</g>
<g>
</g>
<g>
</g>
<g>
</g>
<g>
</g>
<g>
</g>
<g>
</g>
<g>
</g>
</svg>
